<?xml version="1.0" encoding="utf-8"?>
<svg xmlns="http://www.w3.org/2000/svg" xmlns:xlink="http://www.w3.org/1999/xlink" width="900" height="900" viewBox="0 0 3600 3600">
<defs>
  <clipPath id="clip370">
    <rect x="0" y="0" width="3600" height="3600"/>
  </clipPath>
</defs>
<path clip-path="url(#clip370)" d="M0 3600 L3600 3600 L3600 0 L0 0  Z" fill="#ffffff" fill-rule="evenodd" fill-opacity="1"/>
<defs>
  <clipPath id="clip371">
    <rect x="720" y="360" width="2521" height="2521"/>
  </clipPath>
</defs>
<path clip-path="url(#clip370)" d="M240.881 3362.14 L3552.76 3362.14 L3552.76 153.712 L240.881 153.712  Z" fill="#ffffff" fill-rule="evenodd" fill-opacity="1"/>
<defs>
  <clipPath id="clip372">
    <rect x="240" y="153" width="3313" height="3209"/>
  </clipPath>
</defs>
<polyline clip-path="url(#clip372)" style="stroke:#000000; stroke-linecap:round; stroke-linejoin:round; stroke-width:2; stroke-opacity:0.1; fill:none" points="486.016,3362.14 486.016,153.712 "/>
<polyline clip-path="url(#clip372)" style="stroke:#000000; stroke-linecap:round; stroke-linejoin:round; stroke-width:2; stroke-opacity:0.1; fill:none" points="1311.85,3362.14 1311.85,153.712 "/>
<polyline clip-path="url(#clip372)" style="stroke:#000000; stroke-linecap:round; stroke-linejoin:round; stroke-width:2; stroke-opacity:0.1; fill:none" points="2137.69,3362.14 2137.69,153.712 "/>
<polyline clip-path="url(#clip372)" style="stroke:#000000; stroke-linecap:round; stroke-linejoin:round; stroke-width:2; stroke-opacity:0.1; fill:none" points="2963.52,3362.14 2963.52,153.712 "/>
<polyline clip-path="url(#clip370)" style="stroke:#000000; stroke-linecap:round; stroke-linejoin:round; stroke-width:4; stroke-opacity:1; fill:none" points="240.881,3362.14 3552.76,3362.14 "/>
<polyline clip-path="url(#clip370)" style="stroke:#000000; stroke-linecap:round; stroke-linejoin:round; stroke-width:4; stroke-opacity:1; fill:none" points="486.016,3362.14 486.016,3343.24 "/>
<polyline clip-path="url(#clip370)" style="stroke:#000000; stroke-linecap:round; stroke-linejoin:round; stroke-width:4; stroke-opacity:1; fill:none" points="1311.85,3362.14 1311.85,3343.24 "/>
<polyline clip-path="url(#clip370)" style="stroke:#000000; stroke-linecap:round; stroke-linejoin:round; stroke-width:4; stroke-opacity:1; fill:none" points="2137.69,3362.14 2137.69,3343.24 "/>
<polyline clip-path="url(#clip370)" style="stroke:#000000; stroke-linecap:round; stroke-linejoin:round; stroke-width:4; stroke-opacity:1; fill:none" points="2963.52,3362.14 2963.52,3343.24 "/>
<path clip-path="url(#clip370)" d="M435.125 3430.2 L451.445 3430.2 L451.445 3434.14 L429.501 3434.14 L429.501 3430.2 Q432.163 3427.45 436.746 3422.82 Q441.352 3418.17 442.533 3416.83 Q444.778 3414.3 445.658 3412.57 Q446.561 3410.81 446.561 3409.12 Q446.561 3406.36 444.616 3404.63 Q442.695 3402.89 439.593 3402.89 Q437.394 3402.89 434.94 3403.65 Q432.51 3404.42 429.732 3405.97 L429.732 3401.25 Q432.556 3400.11 435.01 3399.53 Q437.463 3398.95 439.5 3398.95 Q444.871 3398.95 448.065 3401.64 Q451.26 3404.33 451.26 3408.82 Q451.26 3410.95 450.449 3412.87 Q449.662 3414.76 447.556 3417.36 Q446.977 3418.03 443.875 3421.25 Q440.774 3424.44 435.125 3430.2 Z" fill="#000000" fill-rule="nonzero" fill-opacity="1" /><path clip-path="url(#clip370)" d="M471.26 3402.66 Q467.648 3402.66 465.82 3406.22 Q464.014 3409.76 464.014 3416.89 Q464.014 3424 465.82 3427.57 Q467.648 3431.11 471.26 3431.11 Q474.894 3431.11 476.699 3427.57 Q478.528 3424 478.528 3416.89 Q478.528 3409.76 476.699 3406.22 Q474.894 3402.66 471.26 3402.66 M471.26 3398.95 Q477.07 3398.95 480.125 3403.56 Q483.204 3408.14 483.204 3416.89 Q483.204 3425.62 480.125 3430.23 Q477.07 3434.81 471.26 3434.81 Q465.449 3434.81 462.371 3430.23 Q459.315 3425.62 459.315 3416.89 Q459.315 3408.14 462.371 3403.56 Q465.449 3398.95 471.26 3398.95 Z" fill="#000000" fill-rule="nonzero" fill-opacity="1" /><path clip-path="url(#clip370)" d="M501.421 3402.66 Q497.81 3402.66 495.982 3406.22 Q494.176 3409.76 494.176 3416.89 Q494.176 3424 495.982 3427.57 Q497.81 3431.11 501.421 3431.11 Q505.056 3431.11 506.861 3427.57 Q508.69 3424 508.69 3416.89 Q508.69 3409.76 506.861 3406.22 Q505.056 3402.66 501.421 3402.66 M501.421 3398.95 Q507.232 3398.95 510.287 3403.56 Q513.366 3408.14 513.366 3416.89 Q513.366 3425.62 510.287 3430.23 Q507.232 3434.81 501.421 3434.81 Q495.611 3434.81 492.533 3430.23 Q489.477 3425.62 489.477 3416.89 Q489.477 3408.14 492.533 3403.56 Q495.611 3398.95 501.421 3398.95 Z" fill="#000000" fill-rule="nonzero" fill-opacity="1" /><path clip-path="url(#clip370)" d="M521.63 3399.58 L539.986 3399.58 L539.986 3403.52 L525.912 3403.52 L525.912 3411.99 Q526.931 3411.64 527.949 3411.48 Q528.968 3411.29 529.986 3411.29 Q535.773 3411.29 539.153 3414.46 Q542.532 3417.64 542.532 3423.05 Q542.532 3428.63 539.06 3431.73 Q535.588 3434.81 529.269 3434.81 Q527.093 3434.81 524.824 3434.44 Q522.579 3434.07 520.171 3433.33 L520.171 3428.63 Q522.255 3429.76 524.477 3430.32 Q526.699 3430.88 529.176 3430.88 Q533.181 3430.88 535.518 3428.77 Q537.856 3426.66 537.856 3423.05 Q537.856 3419.44 535.518 3417.33 Q533.181 3415.23 529.176 3415.23 Q527.301 3415.23 525.426 3415.64 Q523.574 3416.06 521.63 3416.94 L521.63 3399.58 Z" fill="#000000" fill-rule="nonzero" fill-opacity="1" /><path clip-path="url(#clip370)" d="M1260.46 3430.2 L1276.78 3430.2 L1276.78 3434.14 L1254.84 3434.14 L1254.84 3430.2 Q1257.5 3427.45 1262.08 3422.82 Q1266.69 3418.17 1267.87 3416.83 Q1270.12 3414.3 1271 3412.57 Q1271.9 3410.81 1271.9 3409.12 Q1271.9 3406.36 1269.95 3404.63 Q1268.03 3402.89 1264.93 3402.89 Q1262.73 3402.89 1260.28 3403.65 Q1257.85 3404.42 1255.07 3405.97 L1255.07 3401.25 Q1257.89 3400.11 1260.35 3399.53 Q1262.8 3398.95 1264.84 3398.95 Q1270.21 3398.95 1273.4 3401.64 Q1276.6 3404.33 1276.6 3408.82 Q1276.6 3410.95 1275.79 3412.87 Q1275 3414.76 1272.89 3417.36 Q1272.31 3418.03 1269.21 3421.25 Q1266.11 3424.44 1260.46 3430.2 Z" fill="#000000" fill-rule="nonzero" fill-opacity="1" /><path clip-path="url(#clip370)" d="M1296.6 3402.66 Q1292.99 3402.66 1291.16 3406.22 Q1289.35 3409.76 1289.35 3416.89 Q1289.35 3424 1291.16 3427.57 Q1292.99 3431.11 1296.6 3431.11 Q1300.23 3431.11 1302.04 3427.57 Q1303.87 3424 1303.87 3416.89 Q1303.87 3409.76 1302.04 3406.22 Q1300.23 3402.66 1296.6 3402.66 M1296.6 3398.95 Q1302.41 3398.95 1305.46 3403.56 Q1308.54 3408.14 1308.54 3416.89 Q1308.54 3425.62 1305.46 3430.23 Q1302.41 3434.81 1296.6 3434.81 Q1290.79 3434.81 1287.71 3430.23 Q1284.65 3425.62 1284.65 3416.89 Q1284.65 3408.14 1287.71 3403.56 Q1290.79 3398.95 1296.6 3398.95 Z" fill="#000000" fill-rule="nonzero" fill-opacity="1" /><path clip-path="url(#clip370)" d="M1317.57 3430.2 L1325.21 3430.2 L1325.21 3403.84 L1316.9 3405.51 L1316.9 3401.25 L1325.16 3399.58 L1329.84 3399.58 L1329.84 3430.2 L1337.48 3430.2 L1337.48 3434.14 L1317.57 3434.14 L1317.57 3430.2 Z" fill="#000000" fill-rule="nonzero" fill-opacity="1" /><path clip-path="url(#clip370)" d="M1356.92 3402.66 Q1353.31 3402.66 1351.48 3406.22 Q1349.68 3409.76 1349.68 3416.89 Q1349.68 3424 1351.48 3427.57 Q1353.31 3431.11 1356.92 3431.11 Q1360.56 3431.11 1362.36 3427.57 Q1364.19 3424 1364.19 3416.89 Q1364.19 3409.76 1362.36 3406.22 Q1360.56 3402.66 1356.92 3402.66 M1356.92 3398.95 Q1362.73 3398.95 1365.79 3403.56 Q1368.87 3408.14 1368.87 3416.89 Q1368.87 3425.62 1365.79 3430.23 Q1362.73 3434.81 1356.92 3434.81 Q1351.11 3434.81 1348.03 3430.23 Q1344.98 3425.62 1344.98 3416.89 Q1344.98 3408.14 1348.03 3403.56 Q1351.11 3398.95 1356.92 3398.95 Z" fill="#000000" fill-rule="nonzero" fill-opacity="1" /><path clip-path="url(#clip370)" d="M2086.8 3430.2 L2103.12 3430.2 L2103.12 3434.14 L2081.17 3434.14 L2081.17 3430.2 Q2083.83 3427.45 2088.42 3422.82 Q2093.02 3418.17 2094.2 3416.83 Q2096.45 3414.3 2097.33 3412.57 Q2098.23 3410.81 2098.23 3409.12 Q2098.23 3406.36 2096.29 3404.63 Q2094.37 3402.89 2091.26 3402.89 Q2089.06 3402.89 2086.61 3403.65 Q2084.18 3404.42 2081.4 3405.97 L2081.4 3401.25 Q2084.23 3400.11 2086.68 3399.53 Q2089.13 3398.95 2091.17 3398.95 Q2096.54 3398.95 2099.74 3401.64 Q2102.93 3404.33 2102.93 3408.82 Q2102.93 3410.95 2102.12 3412.87 Q2101.33 3414.76 2099.23 3417.36 Q2098.65 3418.03 2095.55 3421.25 Q2092.44 3424.44 2086.8 3430.2 Z" fill="#000000" fill-rule="nonzero" fill-opacity="1" /><path clip-path="url(#clip370)" d="M2122.93 3402.66 Q2119.32 3402.66 2117.49 3406.22 Q2115.68 3409.76 2115.68 3416.89 Q2115.68 3424 2117.49 3427.57 Q2119.32 3431.11 2122.93 3431.11 Q2126.56 3431.11 2128.37 3427.57 Q2130.2 3424 2130.2 3416.89 Q2130.2 3409.76 2128.37 3406.22 Q2126.56 3402.66 2122.93 3402.66 M2122.93 3398.95 Q2128.74 3398.95 2131.8 3403.56 Q2134.87 3408.14 2134.87 3416.89 Q2134.87 3425.62 2131.8 3430.23 Q2128.74 3434.81 2122.93 3434.81 Q2117.12 3434.81 2114.04 3430.23 Q2110.99 3425.62 2110.99 3416.89 Q2110.99 3408.14 2114.04 3403.56 Q2117.12 3398.95 2122.93 3398.95 Z" fill="#000000" fill-rule="nonzero" fill-opacity="1" /><path clip-path="url(#clip370)" d="M2143.9 3430.2 L2151.54 3430.2 L2151.54 3403.84 L2143.23 3405.51 L2143.23 3401.25 L2151.49 3399.58 L2156.17 3399.58 L2156.17 3430.2 L2163.81 3430.2 L2163.81 3434.14 L2143.9 3434.14 L2143.9 3430.2 Z" fill="#000000" fill-rule="nonzero" fill-opacity="1" /><path clip-path="url(#clip370)" d="M2173.3 3399.58 L2191.66 3399.58 L2191.66 3403.52 L2177.58 3403.52 L2177.58 3411.99 Q2178.6 3411.64 2179.62 3411.48 Q2180.64 3411.29 2181.66 3411.29 Q2187.44 3411.29 2190.82 3414.46 Q2194.2 3417.64 2194.2 3423.05 Q2194.2 3428.63 2190.73 3431.73 Q2187.26 3434.81 2180.94 3434.81 Q2178.76 3434.81 2176.49 3434.44 Q2174.25 3434.07 2171.84 3433.33 L2171.84 3428.63 Q2173.93 3429.76 2176.15 3430.32 Q2178.37 3430.88 2180.85 3430.88 Q2184.85 3430.88 2187.19 3428.77 Q2189.53 3426.66 2189.53 3423.05 Q2189.53 3419.44 2187.19 3417.33 Q2184.85 3415.23 2180.85 3415.23 Q2178.97 3415.23 2177.1 3415.64 Q2175.24 3416.06 2173.3 3416.94 L2173.3 3399.58 Z" fill="#000000" fill-rule="nonzero" fill-opacity="1" /><path clip-path="url(#clip370)" d="M2912.13 3430.2 L2928.45 3430.2 L2928.45 3434.14 L2906.51 3434.14 L2906.51 3430.2 Q2909.17 3427.45 2913.75 3422.82 Q2918.36 3418.17 2919.54 3416.83 Q2921.79 3414.3 2922.67 3412.57 Q2923.57 3410.81 2923.57 3409.12 Q2923.57 3406.36 2921.62 3404.63 Q2919.7 3402.89 2916.6 3402.89 Q2914.4 3402.89 2911.95 3403.65 Q2909.52 3404.42 2906.74 3405.97 L2906.74 3401.25 Q2909.56 3400.11 2912.02 3399.53 Q2914.47 3398.95 2916.51 3398.95 Q2921.88 3398.95 2925.07 3401.64 Q2928.27 3404.33 2928.27 3408.82 Q2928.27 3410.95 2927.46 3412.87 Q2926.67 3414.76 2924.56 3417.36 Q2923.99 3418.03 2920.88 3421.25 Q2917.78 3424.44 2912.13 3430.2 Z" fill="#000000" fill-rule="nonzero" fill-opacity="1" /><path clip-path="url(#clip370)" d="M2948.27 3402.66 Q2944.66 3402.66 2942.83 3406.22 Q2941.02 3409.76 2941.02 3416.89 Q2941.02 3424 2942.83 3427.57 Q2944.66 3431.11 2948.27 3431.11 Q2951.9 3431.11 2953.71 3427.57 Q2955.54 3424 2955.54 3416.89 Q2955.54 3409.76 2953.71 3406.22 Q2951.9 3402.66 2948.27 3402.66 M2948.27 3398.95 Q2954.08 3398.95 2957.13 3403.56 Q2960.21 3408.14 2960.21 3416.89 Q2960.21 3425.62 2957.13 3430.23 Q2954.08 3434.81 2948.27 3434.81 Q2942.46 3434.81 2939.38 3430.23 Q2936.32 3425.62 2936.32 3416.89 Q2936.32 3408.14 2939.38 3403.56 Q2942.46 3398.95 2948.27 3398.95 Z" fill="#000000" fill-rule="nonzero" fill-opacity="1" /><path clip-path="url(#clip370)" d="M2972.46 3430.2 L2988.78 3430.2 L2988.78 3434.14 L2966.83 3434.14 L2966.83 3430.2 Q2969.49 3427.45 2974.08 3422.82 Q2978.68 3418.17 2979.86 3416.83 Q2982.11 3414.3 2982.99 3412.57 Q2983.89 3410.81 2983.89 3409.12 Q2983.89 3406.36 2981.95 3404.63 Q2980.03 3402.89 2976.93 3402.89 Q2974.73 3402.89 2972.27 3403.65 Q2969.84 3404.42 2967.06 3405.97 L2967.06 3401.25 Q2969.89 3400.11 2972.34 3399.53 Q2974.8 3398.95 2976.83 3398.95 Q2982.2 3398.95 2985.4 3401.64 Q2988.59 3404.33 2988.59 3408.82 Q2988.59 3410.95 2987.78 3412.87 Q2986.99 3414.76 2984.89 3417.36 Q2984.31 3418.03 2981.21 3421.25 Q2978.11 3424.44 2972.46 3430.2 Z" fill="#000000" fill-rule="nonzero" fill-opacity="1" /><path clip-path="url(#clip370)" d="M3008.59 3402.66 Q3004.98 3402.66 3003.15 3406.22 Q3001.35 3409.76 3001.35 3416.89 Q3001.35 3424 3003.15 3427.57 Q3004.98 3431.11 3008.59 3431.11 Q3012.23 3431.11 3014.03 3427.57 Q3015.86 3424 3015.86 3416.89 Q3015.86 3409.76 3014.03 3406.22 Q3012.23 3402.66 3008.59 3402.66 M3008.59 3398.95 Q3014.4 3398.95 3017.46 3403.56 Q3020.54 3408.14 3020.54 3416.89 Q3020.54 3425.62 3017.46 3430.23 Q3014.4 3434.81 3008.59 3434.81 Q3002.78 3434.81 2999.7 3430.23 Q2996.65 3425.62 2996.65 3416.89 Q2996.65 3408.14 2999.7 3403.56 Q3002.78 3398.95 3008.59 3398.95 Z" fill="#000000" fill-rule="nonzero" fill-opacity="1" /><path clip-path="url(#clip370)" d="M1818.7 3477.48 L1858.89 3477.48 L1858.89 3482.89 L1842.03 3482.89 L1842.03 3525 L1835.56 3525 L1835.56 3482.89 L1818.7 3482.89 L1818.7 3477.48 Z" fill="#000000" fill-rule="nonzero" fill-opacity="1" /><path clip-path="url(#clip370)" d="M1862.84 3489.36 L1868.7 3489.36 L1868.7 3525 L1862.84 3525 L1862.84 3489.36 M1862.84 3475.48 L1868.7 3475.48 L1868.7 3482.89 L1862.84 3482.89 L1862.84 3475.48 Z" fill="#000000" fill-rule="nonzero" fill-opacity="1" /><path clip-path="url(#clip370)" d="M1908.71 3496.2 Q1910.9 3492.25 1913.96 3490.37 Q1917.01 3488.5 1921.15 3488.5 Q1926.72 3488.5 1929.75 3492.41 Q1932.77 3496.29 1932.77 3503.49 L1932.77 3525 L1926.88 3525 L1926.88 3503.68 Q1926.88 3498.55 1925.07 3496.07 Q1923.25 3493.59 1919.53 3493.59 Q1914.98 3493.59 1912.33 3496.61 Q1909.69 3499.64 1909.69 3504.86 L1909.69 3525 L1903.8 3525 L1903.8 3503.68 Q1903.8 3498.52 1901.99 3496.07 Q1900.18 3493.59 1896.39 3493.59 Q1891.9 3493.59 1889.26 3496.64 Q1886.62 3499.67 1886.62 3504.86 L1886.62 3525 L1880.73 3525 L1880.73 3489.36 L1886.62 3489.36 L1886.62 3494.89 Q1888.62 3491.62 1891.42 3490.06 Q1894.22 3488.5 1898.08 3488.5 Q1901.96 3488.5 1904.66 3490.47 Q1907.4 3492.44 1908.71 3496.2 Z" fill="#000000" fill-rule="nonzero" fill-opacity="1" /><path clip-path="url(#clip370)" d="M1974.94 3505.72 L1974.94 3508.58 L1948.01 3508.58 Q1948.4 3514.63 1951.64 3517.81 Q1954.92 3520.96 1960.75 3520.96 Q1964.12 3520.96 1967.27 3520.13 Q1970.45 3519.31 1973.57 3517.65 L1973.57 3523.19 Q1970.42 3524.53 1967.11 3525.23 Q1963.8 3525.93 1960.4 3525.93 Q1951.87 3525.93 1946.87 3520.96 Q1941.9 3516 1941.9 3507.53 Q1941.9 3498.78 1946.61 3493.65 Q1951.36 3488.5 1959.38 3488.5 Q1966.57 3488.5 1970.74 3493.14 Q1974.94 3497.76 1974.94 3505.72 M1969.09 3504 Q1969.02 3499.19 1966.38 3496.33 Q1963.77 3493.46 1959.44 3493.46 Q1954.54 3493.46 1951.58 3496.23 Q1948.65 3499 1948.21 3504.03 L1969.09 3504 Z" fill="#000000" fill-rule="nonzero" fill-opacity="1" /><polyline clip-path="url(#clip372)" style="stroke:#000000; stroke-linecap:round; stroke-linejoin:round; stroke-width:2; stroke-opacity:0.1; fill:none" points="240.881,3362.14 3552.76,3362.14 "/>
<polyline clip-path="url(#clip372)" style="stroke:#000000; stroke-linecap:round; stroke-linejoin:round; stroke-width:2; stroke-opacity:0.1; fill:none" points="240.881,2292.66 3552.76,2292.66 "/>
<polyline clip-path="url(#clip372)" style="stroke:#000000; stroke-linecap:round; stroke-linejoin:round; stroke-width:2; stroke-opacity:0.1; fill:none" points="240.881,1223.19 3552.76,1223.19 "/>
<polyline clip-path="url(#clip372)" style="stroke:#000000; stroke-linecap:round; stroke-linejoin:round; stroke-width:2; stroke-opacity:0.1; fill:none" points="240.881,153.712 3552.76,153.712 "/>
<polyline clip-path="url(#clip370)" style="stroke:#000000; stroke-linecap:round; stroke-linejoin:round; stroke-width:4; stroke-opacity:1; fill:none" points="240.881,3362.14 240.881,153.712 "/>
<polyline clip-path="url(#clip370)" style="stroke:#000000; stroke-linecap:round; stroke-linejoin:round; stroke-width:4; stroke-opacity:1; fill:none" points="240.881,3362.14 259.779,3362.14 "/>
<polyline clip-path="url(#clip370)" style="stroke:#000000; stroke-linecap:round; stroke-linejoin:round; stroke-width:4; stroke-opacity:1; fill:none" points="240.881,2292.66 259.779,2292.66 "/>
<polyline clip-path="url(#clip370)" style="stroke:#000000; stroke-linecap:round; stroke-linejoin:round; stroke-width:4; stroke-opacity:1; fill:none" points="240.881,1223.19 259.779,1223.19 "/>
<polyline clip-path="url(#clip370)" style="stroke:#000000; stroke-linecap:round; stroke-linejoin:round; stroke-width:4; stroke-opacity:1; fill:none" points="240.881,153.712 259.779,153.712 "/>
<path clip-path="url(#clip370)" d="M135.585 3375.48 L143.224 3375.48 L143.224 3349.12 L134.914 3350.79 L134.914 3346.53 L143.178 3344.86 L147.853 3344.86 L147.853 3375.48 L155.492 3375.48 L155.492 3379.42 L135.585 3379.42 L135.585 3375.48 Z" fill="#000000" fill-rule="nonzero" fill-opacity="1" /><path clip-path="url(#clip370)" d="M174.937 3347.94 Q171.326 3347.94 169.497 3351.5 Q167.691 3355.04 167.691 3362.17 Q167.691 3369.28 169.497 3372.85 Q171.326 3376.39 174.937 3376.39 Q178.571 3376.39 180.376 3372.85 Q182.205 3369.28 182.205 3362.17 Q182.205 3355.04 180.376 3351.5 Q178.571 3347.94 174.937 3347.94 M174.937 3344.23 Q180.747 3344.23 183.802 3348.84 Q186.881 3353.42 186.881 3362.17 Q186.881 3370.9 183.802 3375.51 Q180.747 3380.09 174.937 3380.09 Q169.126 3380.09 166.048 3375.51 Q162.992 3370.9 162.992 3362.17 Q162.992 3353.42 166.048 3348.84 Q169.126 3344.23 174.937 3344.23 Z" fill="#000000" fill-rule="nonzero" fill-opacity="1" /><path clip-path="url(#clip370)" d="M138.803 2306.01 L155.122 2306.01 L155.122 2309.94 L133.178 2309.94 L133.178 2306.01 Q135.84 2303.25 140.423 2298.62 Q145.029 2293.97 146.21 2292.63 Q148.455 2290.11 149.335 2288.37 Q150.238 2286.61 150.238 2284.92 Q150.238 2282.17 148.293 2280.43 Q146.372 2278.69 143.27 2278.69 Q141.071 2278.69 138.617 2279.46 Q136.187 2280.22 133.409 2281.77 L133.409 2277.05 Q136.233 2275.92 138.687 2275.34 Q141.14 2274.76 143.178 2274.76 Q148.548 2274.76 151.742 2277.44 Q154.937 2280.13 154.937 2284.62 Q154.937 2286.75 154.127 2288.67 Q153.339 2290.57 151.233 2293.16 Q150.654 2293.83 147.552 2297.05 Q144.451 2300.24 138.803 2306.01 Z" fill="#000000" fill-rule="nonzero" fill-opacity="1" /><path clip-path="url(#clip370)" d="M174.937 2278.46 Q171.326 2278.46 169.497 2282.03 Q167.691 2285.57 167.691 2292.7 Q167.691 2299.81 169.497 2303.37 Q171.326 2306.91 174.937 2306.91 Q178.571 2306.91 180.376 2303.37 Q182.205 2299.81 182.205 2292.7 Q182.205 2285.57 180.376 2282.03 Q178.571 2278.46 174.937 2278.46 M174.937 2274.76 Q180.747 2274.76 183.802 2279.37 Q186.881 2283.95 186.881 2292.7 Q186.881 2301.43 183.802 2306.03 Q180.747 2310.62 174.937 2310.62 Q169.126 2310.62 166.048 2306.03 Q162.992 2301.43 162.992 2292.7 Q162.992 2283.95 166.048 2279.37 Q169.126 2274.76 174.937 2274.76 Z" fill="#000000" fill-rule="nonzero" fill-opacity="1" /><path clip-path="url(#clip370)" d="M148.941 1221.83 Q152.298 1222.55 154.173 1224.82 Q156.071 1227.09 156.071 1230.42 Q156.071 1235.54 152.552 1238.34 Q149.034 1241.14 142.553 1241.14 Q140.377 1241.14 138.062 1240.7 Q135.77 1240.28 133.316 1239.43 L133.316 1234.91 Q135.261 1236.05 137.576 1236.63 Q139.89 1237.2 142.414 1237.2 Q146.812 1237.2 149.103 1235.47 Q151.418 1233.73 151.418 1230.42 Q151.418 1227.37 149.265 1225.65 Q147.136 1223.92 143.316 1223.92 L139.289 1223.92 L139.289 1220.07 L143.502 1220.07 Q146.951 1220.07 148.779 1218.71 Q150.608 1217.32 150.608 1214.73 Q150.608 1212.07 148.71 1210.65 Q146.835 1209.22 143.316 1209.22 Q141.395 1209.22 139.196 1209.63 Q136.997 1210.05 134.358 1210.93 L134.358 1206.76 Q137.02 1206.02 139.335 1205.65 Q141.673 1205.28 143.733 1205.28 Q149.057 1205.28 152.159 1207.71 Q155.261 1210.12 155.261 1214.24 Q155.261 1217.11 153.617 1219.1 Q151.974 1221.07 148.941 1221.83 Z" fill="#000000" fill-rule="nonzero" fill-opacity="1" /><path clip-path="url(#clip370)" d="M174.937 1208.99 Q171.326 1208.99 169.497 1212.55 Q167.691 1216.09 167.691 1223.22 Q167.691 1230.33 169.497 1233.89 Q171.326 1237.44 174.937 1237.44 Q178.571 1237.44 180.376 1233.89 Q182.205 1230.33 182.205 1223.22 Q182.205 1216.09 180.376 1212.55 Q178.571 1208.99 174.937 1208.99 M174.937 1205.28 Q180.747 1205.28 183.802 1209.89 Q186.881 1214.47 186.881 1223.22 Q186.881 1231.95 183.802 1236.56 Q180.747 1241.14 174.937 1241.14 Q169.126 1241.14 166.048 1236.56 Q162.992 1231.95 162.992 1223.22 Q162.992 1214.47 166.048 1209.89 Q169.126 1205.28 174.937 1205.28 Z" fill="#000000" fill-rule="nonzero" fill-opacity="1" /><path clip-path="url(#clip370)" d="M147.622 140.506 L135.816 158.955 L147.622 158.955 L147.622 140.506 M146.395 136.432 L152.275 136.432 L152.275 158.955 L157.205 158.955 L157.205 162.844 L152.275 162.844 L152.275 170.992 L147.622 170.992 L147.622 162.844 L132.02 162.844 L132.02 158.33 L146.395 136.432 Z" fill="#000000" fill-rule="nonzero" fill-opacity="1" /><path clip-path="url(#clip370)" d="M174.937 139.511 Q171.326 139.511 169.497 143.076 Q167.691 146.617 167.691 153.747 Q167.691 160.853 169.497 164.418 Q171.326 167.96 174.937 167.96 Q178.571 167.96 180.376 164.418 Q182.205 160.853 182.205 153.747 Q182.205 146.617 180.376 143.076 Q178.571 139.511 174.937 139.511 M174.937 135.807 Q180.747 135.807 183.802 140.414 Q186.881 144.997 186.881 153.747 Q186.881 162.474 183.802 167.08 Q180.747 171.663 174.937 171.663 Q169.126 171.663 166.048 167.08 Q162.992 162.474 162.992 153.747 Q162.992 144.997 166.048 140.414 Q169.126 135.807 174.937 135.807 Z" fill="#000000" fill-rule="nonzero" fill-opacity="1" /><path clip-path="url(#clip370)" d="M58.417 1857.82 L77.3231 1857.82 L77.3231 1863.71 L28.1162 1863.71 L28.1162 1857.82 L33.5271 1857.82 Q30.3442 1855.97 28.8164 1853.17 Q27.2568 1850.34 27.2568 1846.43 Q27.2568 1839.93 32.4131 1835.89 Q37.5693 1831.82 45.972 1831.82 Q54.3747 1831.82 59.531 1835.89 Q64.6872 1839.93 64.6872 1846.43 Q64.6872 1850.34 63.1594 1853.17 Q61.5998 1855.97 58.417 1857.82 M45.972 1837.9 Q39.5108 1837.9 35.8505 1840.57 Q32.1584 1843.21 32.1584 1847.86 Q32.1584 1852.5 35.8505 1855.18 Q39.5108 1857.82 45.972 1857.82 Q52.4332 1857.82 56.1253 1855.18 Q59.7856 1852.5 59.7856 1847.86 Q59.7856 1843.21 56.1253 1840.57 Q52.4332 1837.9 45.972 1837.9 Z" fill="#000000" fill-rule="nonzero" fill-opacity="1" /><path clip-path="url(#clip370)" d="M44.4761 1791.62 L47.3406 1791.62 L47.3406 1818.54 Q53.3881 1818.16 56.5709 1814.91 Q59.7219 1811.64 59.7219 1805.81 Q59.7219 1802.44 58.8944 1799.29 Q58.0669 1796.1 56.4118 1792.99 L61.9499 1792.99 Q63.2867 1796.14 63.987 1799.45 Q64.6872 1802.76 64.6872 1806.16 Q64.6872 1814.69 59.7219 1819.69 Q54.7567 1824.65 46.2903 1824.65 Q37.5374 1824.65 32.4131 1819.94 Q27.2568 1815.2 27.2568 1807.18 Q27.2568 1799.99 31.9038 1795.82 Q36.5189 1791.62 44.4761 1791.62 M42.7573 1797.47 Q37.9512 1797.54 35.0866 1800.18 Q32.2221 1802.79 32.2221 1807.12 Q32.2221 1812.02 34.9912 1814.98 Q37.7602 1817.91 42.7892 1818.35 L42.7573 1797.47 Z" fill="#000000" fill-rule="nonzero" fill-opacity="1" /><path clip-path="url(#clip370)" d="M32.2221 1768.19 Q32.2221 1772.9 35.9142 1775.64 Q39.5745 1778.38 45.972 1778.38 Q52.3695 1778.38 56.0617 1775.67 Q59.7219 1772.93 59.7219 1768.19 Q59.7219 1763.51 56.0298 1760.77 Q52.3377 1758.04 45.972 1758.04 Q39.6381 1758.04 35.946 1760.77 Q32.2221 1763.51 32.2221 1768.19 M27.2568 1768.19 Q27.2568 1760.55 32.2221 1756.19 Q37.1873 1751.83 45.972 1751.83 Q54.7249 1751.83 59.7219 1756.19 Q64.6872 1760.55 64.6872 1768.19 Q64.6872 1775.86 59.7219 1780.22 Q54.7249 1784.55 45.972 1784.55 Q37.1873 1784.55 32.2221 1780.22 Q27.2568 1775.86 27.2568 1768.19 Z" fill="#000000" fill-rule="nonzero" fill-opacity="1" /><path clip-path="url(#clip370)" d="M58.417 1736.46 L77.3231 1736.46 L77.3231 1742.35 L28.1162 1742.35 L28.1162 1736.46 L33.5271 1736.46 Q30.3442 1734.61 28.8164 1731.81 Q27.2568 1728.98 27.2568 1725.06 Q27.2568 1718.57 32.4131 1714.53 Q37.5693 1710.45 45.972 1710.45 Q54.3747 1710.45 59.531 1714.53 Q64.6872 1718.57 64.6872 1725.06 Q64.6872 1728.98 63.1594 1731.81 Q61.5998 1734.61 58.417 1736.46 M45.972 1716.53 Q39.5108 1716.53 35.8505 1719.21 Q32.1584 1721.85 32.1584 1726.5 Q32.1584 1731.14 35.8505 1733.82 Q39.5108 1736.46 45.972 1736.46 Q52.4332 1736.46 56.1253 1733.82 Q59.7856 1731.14 59.7856 1726.5 Q59.7856 1721.85 56.1253 1719.21 Q52.4332 1716.53 45.972 1716.53 Z" fill="#000000" fill-rule="nonzero" fill-opacity="1" /><path clip-path="url(#clip370)" d="M14.239 1700.75 L14.239 1694.89 L63.7642 1694.89 L63.7642 1700.75 L14.239 1700.75 Z" fill="#000000" fill-rule="nonzero" fill-opacity="1" /><path clip-path="url(#clip370)" d="M44.4761 1652.14 L47.3406 1652.14 L47.3406 1679.07 Q53.3881 1678.69 56.5709 1675.44 Q59.7219 1672.16 59.7219 1666.34 Q59.7219 1662.97 58.8944 1659.81 Q58.0669 1656.63 56.4118 1653.51 L61.9499 1653.51 Q63.2867 1656.66 63.987 1659.97 Q64.6872 1663.28 64.6872 1666.69 Q64.6872 1675.22 59.7219 1680.22 Q54.7567 1685.18 46.2903 1685.18 Q37.5374 1685.18 32.4131 1680.47 Q27.2568 1675.73 27.2568 1667.71 Q27.2568 1660.51 31.9038 1656.35 Q36.5189 1652.14 44.4761 1652.14 M42.7573 1658 Q37.9512 1658.06 35.0866 1660.71 Q32.2221 1663.32 32.2221 1667.64 Q32.2221 1672.55 34.9912 1675.51 Q37.7602 1678.43 42.7892 1678.88 L42.7573 1658 Z" fill="#000000" fill-rule="nonzero" fill-opacity="1" /><path clip-path="url(#clip370)" d="M1825.73 16.7545 L1825.73 25.383 Q1821.59 21.5346 1816.89 19.6307 Q1812.24 17.7268 1806.97 17.7268 Q1796.6 17.7268 1791.09 24.0867 Q1785.58 30.4061 1785.58 42.3968 Q1785.58 54.3469 1791.09 60.7069 Q1796.6 67.0263 1806.97 67.0263 Q1812.24 67.0263 1816.89 65.1223 Q1821.59 63.2184 1825.73 59.3701 L1825.73 67.9175 Q1821.43 70.8341 1816.61 72.2924 Q1811.83 73.7508 1806.48 73.7508 Q1792.75 73.7508 1784.85 65.3654 Q1776.95 56.9395 1776.95 42.3968 Q1776.95 27.8135 1784.85 19.4281 Q1792.75 11.0023 1806.48 11.0023 Q1811.91 11.0023 1816.69 12.4606 Q1821.51 13.8784 1825.73 16.7545 Z" fill="#000000" fill-rule="nonzero" fill-opacity="1" /><path clip-path="url(#clip370)" d="M1855.62 32.4315 Q1849.63 32.4315 1846.14 37.1306 Q1842.66 41.7891 1842.66 49.9314 Q1842.66 58.0738 1846.1 62.7728 Q1849.58 67.4314 1855.62 67.4314 Q1861.58 67.4314 1865.06 62.7323 Q1868.54 58.0333 1868.54 49.9314 Q1868.54 41.8701 1865.06 37.1711 Q1861.58 32.4315 1855.62 32.4315 M1855.62 26.1121 Q1865.34 26.1121 1870.89 32.4315 Q1876.44 38.7509 1876.44 49.9314 Q1876.44 61.0714 1870.89 67.4314 Q1865.34 73.7508 1855.62 73.7508 Q1845.86 73.7508 1840.31 67.4314 Q1834.8 61.0714 1834.8 49.9314 Q1834.8 38.7509 1840.31 32.4315 Q1845.86 26.1121 1855.62 26.1121 Z" fill="#000000" fill-rule="nonzero" fill-opacity="1" /><path clip-path="url(#clip370)" d="M1888.03 54.671 L1888.03 27.2059 L1895.48 27.2059 L1895.48 54.3874 Q1895.48 60.8284 1897.99 64.0691 Q1900.5 67.2693 1905.53 67.2693 Q1911.56 67.2693 1915.05 63.421 Q1918.57 59.5726 1918.57 52.9291 L1918.57 27.2059 L1926.03 27.2059 L1926.03 72.576 L1918.57 72.576 L1918.57 65.6084 Q1915.86 69.7404 1912.25 71.7658 Q1908.69 73.7508 1903.95 73.7508 Q1896.13 73.7508 1892.08 68.8897 Q1888.03 64.0286 1888.03 54.671 M1906.78 26.1121 L1906.78 26.1121 Z" fill="#000000" fill-rule="nonzero" fill-opacity="1" /><path clip-path="url(#clip370)" d="M1979.09 45.1919 L1979.09 72.576 L1971.64 72.576 L1971.64 45.4349 Q1971.64 38.994 1969.13 35.7938 Q1966.62 32.5936 1961.59 32.5936 Q1955.56 32.5936 1952.07 36.4419 Q1948.59 40.2903 1948.59 46.9338 L1948.59 72.576 L1941.09 72.576 L1941.09 27.2059 L1948.59 27.2059 L1948.59 34.2544 Q1951.26 30.163 1954.87 28.1376 Q1958.51 26.1121 1963.25 26.1121 Q1971.07 26.1121 1975.08 30.9732 Q1979.09 35.7938 1979.09 45.1919 Z" fill="#000000" fill-rule="nonzero" fill-opacity="1" /><path clip-path="url(#clip370)" d="M2001.33 14.324 L2001.33 27.2059 L2016.68 27.2059 L2016.68 32.9987 L2001.33 32.9987 L2001.33 57.6282 Q2001.33 63.1779 2002.83 64.7578 Q2004.37 66.3376 2009.03 66.3376 L2016.68 66.3376 L2016.68 72.576 L2009.03 72.576 Q2000.4 72.576 1997.12 69.3758 Q1993.84 66.1351 1993.84 57.6282 L1993.84 32.9987 L1988.37 32.9987 L1988.37 27.2059 L1993.84 27.2059 L1993.84 14.324 L2001.33 14.324 Z" fill="#000000" fill-rule="nonzero" fill-opacity="1" /><polyline clip-path="url(#clip372)" style="stroke:#009af9; stroke-linecap:round; stroke-linejoin:round; stroke-width:12; stroke-opacity:1; fill:none" points="334.613,4431.62 340.875,4431.62 347.136,4431.62 353.397,4431.62 359.659,4431.62 365.92,4431.62 372.181,4431.62 378.443,4431.62 384.704,4431.62 390.965,4431.62 397.227,4431.62 403.488,4431.62 409.749,4431.62 416.011,4431.62 422.272,4431.61 428.533,4431.61 434.795,4431.61 441.056,4431.61 447.317,4431.61 453.579,4431.61 459.84,4431.61 466.101,4431.61 472.363,4431.61 478.624,4431.61 484.886,4431.61 491.147,4431.61 497.408,4431.61 503.67,4431.61 509.931,4431.61 516.192,4431.61 522.454,4431.61 528.715,4431.61 534.976,4431.61 541.238,4431.61 547.499,4431.61 553.76,4431.61 560.022,4431.61 566.283,4431.61 572.544,4431.61 578.806,4431.61 585.067,4431.61 591.328,4431.61 597.59,4431.61 603.851,4431.61 610.112,4431.61 616.374,4431.61 622.635,4431.61 628.896,4431.61 635.158,4431.61 641.419,4431.61 647.68,4431.61 653.942,4431.61 660.203,4431.61 666.464,4431.61 672.726,4431.61 678.987,4431.61 685.249,4431.61 691.51,4431.61 697.771,4431.61 704.033,4431.61 710.294,4431.61 716.555,4431.61 722.817,4431.61 729.078,4431.61 735.339,4431.61 741.601,4431.61 747.862,4431.61 754.123,4431.61 760.385,4431.61 766.646,4431.61 772.907,4431.61 779.169,4431.61 785.43,4431.61 791.691,4431.61 797.953,4431.61 804.214,4431.61 810.475,4431.61 816.737,4431.61 822.998,4431.61 829.259,4431.61 835.521,4431.61 841.782,4431.61 848.043,4431.61 854.305,4431.61 860.566,4431.61 866.827,4431.61 873.089,4431.61 879.35,4431.61 885.611,4431.61 891.873,4431.61 898.134,4431.61 904.396,4431.61 910.657,4431.61 916.918,4431.61 923.18,4431.61 929.441,4431.61 935.702,4431.61 941.964,4431.61 948.225,4431.61 954.486,4431.61 960.748,4431.61 967.009,4431.61 973.27,4431.61 979.532,4431.61 985.793,4431.6 992.054,4431.6 998.316,4431.6 1004.58,4431.6 1010.84,4431.6 1017.1,4431.6 1023.36,4431.6 1029.62,4431.6 1035.88,4431.6 1042.15,4431.6 1048.41,4431.6 1054.67,4431.6 1060.93,4431.6 1067.19,4431.6 1073.45,4431.6 1079.71,4431.6 1085.97,4431.6 1092.24,4431.6 1098.5,4431.6 1104.76,4431.6 1111.02,4431.6 1117.28,4431.6 1123.54,4431.6 1129.8,4431.6 1136.07,4431.6 1142.33,4431.6 1148.59,4431.6 1154.85,4431.6 1161.11,4431.6 1167.37,4431.6 1173.63,4431.6 1179.89,4431.6 1186.16,4431.6 1192.42,4431.6 1198.68,4431.6 1204.94,4431.6 1211.2,4431.6 1217.46,4431.6 1223.72,4431.6 1229.99,4431.6 1236.25,4431.6 1242.51,4431.6 1248.77,4431.6 1255.03,4431.6 1261.29,4431.6 1267.55,4431.6 1273.81,4431.6 1280.08,4431.6 1286.34,4431.6 1292.6,4431.6 1298.86,4431.6 1305.12,4431.6 1311.38,4431.6 1317.64,4431.6 1323.91,4431.59 1330.17,4431.59 1336.43,4431.59 1342.69,4431.59 1348.95,4431.59 1355.21,4431.59 1361.47,4431.59 1367.73,4431.59 1374,4431.59 1380.26,4431.59 1386.52,4431.59 1392.78,4431.59 1399.04,4431.59 1405.3,4431.59 1411.56,4431.59 1417.83,4431.59 1424.09,4431.59 1430.35,4431.59 1436.61,4431.59 1442.87,4431.59 1449.13,4431.59 1455.39,4431.59 1461.66,4431.59 1467.92,4431.59 1474.18,4431.59 1480.44,4431.59 1486.7,4431.59 1492.96,4431.59 1499.22,4431.59 1505.48,4431.59 1511.75,4431.59 1518.01,4431.59 1524.27,4431.59 1530.53,4431.59 1536.79,4431.59 1543.05,4431.59 1549.31,4431.59 1555.58,4431.59 1561.84,4431.59 1568.1,4431.59 1574.36,4431.59 1580.62,4431.59 1586.88,4431.59 1593.14,4431.58 1599.4,4431.58 1605.67,4431.58 1611.93,4431.58 1618.19,4431.58 1624.45,4431.58 1630.71,4431.58 1636.97,4431.58 1643.23,4431.58 1649.5,4431.58 1655.76,4431.58 1662.02,4431.58 1668.28,4431.58 1674.54,4431.58 1680.8,4431.58 1687.06,4431.58 1693.32,4431.58 1699.59,4431.58 1705.85,4431.58 1712.11,4431.58 1718.37,4431.58 1724.63,4431.58 1730.89,4431.58 1737.15,4431.58 1743.42,4431.58 1749.68,4431.58 1755.94,4431.58 1762.2,4431.58 1768.46,4431.58 1774.72,4431.58 1780.98,4431.58 1787.24,4431.58 1793.51,4431.58 1799.77,4431.58 1806.03,4431.58 1812.29,4431.58 1818.55,4431.58 1824.81,4431.57 1831.07,4431.57 1837.34,4431.57 1843.6,4431.57 1849.86,4431.57 1856.12,4431.57 1862.38,4431.57 1868.64,4431.57 1874.9,4431.57 1881.17,4431.57 1887.43,4431.57 1893.69,4431.57 1899.95,4431.57 1906.21,4431.57 1912.47,4431.57 1918.73,4431.57 1924.99,4431.57 1931.26,4431.57 1937.52,4431.57 1943.78,4431.57 1950.04,4431.57 1956.3,4431.57 1962.56,4431.57 1968.82,4431.57 1975.09,4431.57 1981.35,4431.57 1987.61,4431.57 1993.87,4431.57 2000.13,4431.57 2006.39,4431.57 2012.65,4431.57 2018.91,4431.57 2025.18,4431.57 2031.44,4431.57 2037.7,4431.56 2043.96,4431.56 2050.22,4431.56 2056.48,4431.56 2062.74,4431.56 2069.01,4431.56 2075.27,4431.56 2081.53,4431.56 2087.79,4431.56 2094.05,4431.56 2100.31,4431.56 2106.57,4431.56 2112.83,4431.56 2119.1,4431.56 2125.36,4431.56 2131.62,4431.56 2137.88,4431.56 2144.14,4431.56 2150.4,4431.56 2156.66,4431.56 2162.93,4431.56 2169.19,4431.56 2175.45,4431.56 2181.71,4431.56 2187.97,4431.56 2194.23,4431.56 2200.49,4431.56 2206.75,4431.56 2213.02,4431.56 2219.28,4431.56 2225.54,4431.56 2231.8,4431.55 2238.06,4431.55 2244.32,4431.55 2250.58,4431.55 2256.85,4431.55 2263.11,4431.55 2269.37,4431.55 2275.63,4431.55 2281.89,4431.55 2288.15,4431.55 2294.41,4431.55 2300.68,4431.55 2306.94,4431.55 2313.2,4431.55 2319.46,4431.55 2325.72,4431.55 2331.98,4431.55 2338.24,4431.55 2344.5,4431.55 2350.77,4431.55 2357.03,4431.55 2363.29,4431.55 2369.55,4431.55 2375.81,4431.55 2382.07,4431.55 2388.33,4431.55 2394.6,4431.55 2400.86,4431.55 2407.12,4431.54 2413.38,4431.54 2419.64,4431.54 2425.9,4431.54 2432.16,4431.54 2438.42,4431.54 2444.69,4431.54 2450.95,4431.54 2457.21,4431.54 2463.47,4431.54 2469.73,4431.54 2475.99,4431.54 2482.25,4431.54 2488.52,4431.54 2494.78,4431.54 2501.04,4431.54 2507.3,4431.54 2513.56,4431.54 2519.82,4431.54 2526.08,4431.54 2532.34,4431.54 2538.61,4431.54 2544.87,4431.54 2551.13,4431.54 2557.39,4431.54 2563.65,4431.54 2569.91,4431.54 2576.17,4431.53 2582.44,4431.53 2588.7,4431.53 2594.96,4431.53 2601.22,4431.53 2607.48,4431.53 2613.74,4431.53 2620,4431.53 2626.26,4431.53 2632.53,4431.53 2638.79,4431.53 2645.05,4431.53 2651.31,4431.53 2657.57,4431.53 2663.83,4431.53 2670.09,4431.53 2676.36,4431.53 2682.62,4431.53 2688.88,4431.53 2695.14,4431.53 2701.4,4431.53 2707.66,4431.53 2713.92,4431.53 2720.19,4431.53 2726.45,4431.53 2732.71,4431.53 2738.97,4431.52 2745.23,4431.52 2751.49,4431.52 2757.75,4431.52 2764.01,4431.52 2770.28,4431.52 2776.54,4431.52 2782.8,4431.52 2789.06,4431.52 2795.32,4431.52 2801.58,4431.52 2807.84,4431.52 2814.11,4431.52 2820.37,4431.52 2826.63,4431.52 2832.89,4431.52 2839.15,4431.52 2845.41,4431.52 2851.67,4431.52 2857.93,4431.52 2864.2,4431.52 2870.46,4431.52 2876.72,4431.52 2882.98,4431.52 2889.24,4431.51 2895.5,4431.51 2901.76,4431.51 2908.03,4431.51 2914.29,4431.51 2920.55,4431.51 2926.81,4431.51 2933.07,4431.51 2939.33,4431.51 2945.59,4431.51 2951.85,4431.51 2958.12,4431.51 2964.38,4431.51 2970.64,4431.51 2976.9,4431.51 2983.16,4431.51 2989.42,4431.51 2995.68,4431.51 3001.95,4431.51 3008.21,4431.51 3014.47,4431.51 3020.73,4431.51 3026.99,4431.51 3033.25,4431.51 3039.51,4431.5 3045.77,4431.5 3052.04,4431.5 3058.3,4431.5 3064.56,4431.5 3070.82,4431.5 3077.08,4431.5 3083.34,4431.5 3089.6,4431.5 3095.87,4431.5 3102.13,4431.5 3108.39,4431.5 3114.65,4431.5 3120.91,4431.5 3127.17,4431.5 3133.43,4431.5 3139.7,4431.5 3145.96,4431.5 3152.22,4431.5 3158.48,4431.5 3164.74,4431.5 3171,4431.5 3177.26,4431.49 3183.52,4431.49 3189.79,4431.49 3196.05,4431.49 3202.31,4431.49 3208.57,4431.49 3214.83,4431.49 3221.09,4431.49 3227.35,4431.49 3233.62,4431.49 3239.88,4431.49 3246.14,4431.49 3252.4,4431.49 3258.66,4431.49 3264.92,4431.49 3271.18,4431.49 3277.44,4431.49 3283.71,4431.49 3289.97,4431.49 3296.23,4431.49 3302.49,4431.49 3308.75,4431.49 3315.01,4431.48 3321.27,4431.48 3327.54,4431.48 3333.8,4431.48 3340.06,4431.48 3346.32,4431.48 3352.58,4431.48 3358.84,4431.48 3365.1,4431.48 3371.36,4431.48 3377.63,4431.48 3383.89,4431.48 3390.15,4431.48 3396.41,4431.48 3402.67,4431.48 3408.93,4431.48 3415.19,4431.48 3421.46,4431.48 3427.72,4431.48 3433.98,4431.48 3440.24,4431.48 3446.5,4431.47 3452.76,4431.47 3459.02,4431.47 "/>
<path clip-path="url(#clip370)" d="M351.277 468.02 L1067.37 468.02 L1067.37 260.66 L351.277 260.66  Z" fill="#ffffff" fill-rule="evenodd" fill-opacity="1"/>
<polyline clip-path="url(#clip370)" style="stroke:#000000; stroke-linecap:round; stroke-linejoin:round; stroke-width:4; stroke-opacity:1; fill:none" points="351.277,468.02 1067.37,468.02 1067.37,260.66 351.277,260.66 351.277,468.02 "/>
<polyline clip-path="url(#clip370)" style="stroke:#009af9; stroke-linecap:round; stroke-linejoin:round; stroke-width:12; stroke-opacity:1; fill:none" points="388.075,312.5 608.867,312.5 "/>
<path clip-path="url(#clip370)" d="M650.342 299.062 L650.342 312.048 L656.221 312.048 Q659.485 312.048 661.267 310.359 Q663.05 308.669 663.05 305.544 Q663.05 302.442 661.267 300.752 Q659.485 299.062 656.221 299.062 L650.342 299.062 M645.666 295.22 L656.221 295.22 Q662.031 295.22 664.994 297.859 Q667.98 300.474 667.98 305.544 Q667.98 310.659 664.994 313.275 Q662.031 315.891 656.221 315.891 L650.342 315.891 L650.342 329.78 L645.666 329.78 L645.666 295.22 Z" fill="#000000" fill-rule="nonzero" fill-opacity="1" /><path clip-path="url(#clip370)" d="M688.258 307.835 Q687.54 307.419 686.684 307.234 Q685.851 307.025 684.832 307.025 Q681.221 307.025 679.277 309.386 Q677.355 311.724 677.355 316.122 L677.355 329.78 L673.073 329.78 L673.073 303.854 L677.355 303.854 L677.355 307.882 Q678.698 305.521 680.851 304.386 Q683.003 303.229 686.082 303.229 Q686.522 303.229 687.054 303.298 Q687.587 303.345 688.235 303.46 L688.258 307.835 Z" fill="#000000" fill-rule="nonzero" fill-opacity="1" /><path clip-path="url(#clip370)" d="M713.86 315.752 L713.86 317.835 L694.277 317.835 Q694.554 322.233 696.915 324.548 Q699.3 326.84 703.536 326.84 Q705.989 326.84 708.281 326.238 Q710.596 325.636 712.864 324.433 L712.864 328.46 Q710.573 329.432 708.165 329.942 Q705.758 330.451 703.281 330.451 Q697.077 330.451 693.443 326.84 Q689.832 323.229 689.832 317.071 Q689.832 310.706 693.258 306.979 Q696.707 303.229 702.54 303.229 Q707.772 303.229 710.804 306.609 Q713.86 309.965 713.86 315.752 M709.601 314.502 Q709.554 311.007 707.633 308.923 Q705.735 306.84 702.587 306.84 Q699.022 306.84 696.869 308.854 Q694.739 310.868 694.415 314.525 L709.601 314.502 Z" fill="#000000" fill-rule="nonzero" fill-opacity="1" /><path clip-path="url(#clip370)" d="M737.911 307.789 L737.911 293.761 L742.17 293.761 L742.17 329.78 L737.911 329.78 L737.911 325.891 Q736.568 328.206 734.508 329.34 Q732.471 330.451 729.6 330.451 Q724.901 330.451 721.938 326.701 Q718.999 322.951 718.999 316.84 Q718.999 310.729 721.938 306.979 Q724.901 303.229 729.6 303.229 Q732.471 303.229 734.508 304.363 Q736.568 305.474 737.911 307.789 M723.397 316.84 Q723.397 321.539 725.318 324.224 Q727.262 326.886 730.642 326.886 Q734.022 326.886 735.966 324.224 Q737.911 321.539 737.911 316.84 Q737.911 312.141 735.966 309.479 Q734.022 306.794 730.642 306.794 Q727.262 306.794 725.318 309.479 Q723.397 312.141 723.397 316.84 Z" fill="#000000" fill-rule="nonzero" fill-opacity="1" /><path clip-path="url(#clip370)" d="M750.943 303.854 L755.202 303.854 L755.202 329.78 L750.943 329.78 L750.943 303.854 M750.943 293.761 L755.202 293.761 L755.202 299.155 L750.943 299.155 L750.943 293.761 Z" fill="#000000" fill-rule="nonzero" fill-opacity="1" /><path clip-path="url(#clip370)" d="M782.771 304.849 L782.771 308.831 Q780.966 307.835 779.137 307.349 Q777.332 306.84 775.48 306.84 Q771.336 306.84 769.045 309.479 Q766.753 312.095 766.753 316.84 Q766.753 321.585 769.045 324.224 Q771.336 326.84 775.48 326.84 Q777.332 326.84 779.137 326.354 Q780.966 325.845 782.771 324.849 L782.771 328.784 Q780.989 329.618 779.068 330.034 Q777.17 330.451 775.017 330.451 Q769.16 330.451 765.711 326.77 Q762.262 323.09 762.262 316.84 Q762.262 310.497 765.734 306.863 Q769.23 303.229 775.295 303.229 Q777.262 303.229 779.137 303.646 Q781.012 304.039 782.771 304.849 Z" fill="#000000" fill-rule="nonzero" fill-opacity="1" /><path clip-path="url(#clip370)" d="M794.392 296.493 L794.392 303.854 L803.165 303.854 L803.165 307.164 L794.392 307.164 L794.392 321.238 Q794.392 324.409 795.248 325.312 Q796.128 326.215 798.79 326.215 L803.165 326.215 L803.165 329.78 L798.79 329.78 Q793.859 329.78 791.984 327.951 Q790.109 326.099 790.109 321.238 L790.109 307.164 L786.984 307.164 L786.984 303.854 L790.109 303.854 L790.109 296.493 L794.392 296.493 Z" fill="#000000" fill-rule="nonzero" fill-opacity="1" /><path clip-path="url(#clip370)" d="M808.767 303.854 L813.026 303.854 L813.026 329.78 L808.767 329.78 L808.767 303.854 M808.767 293.761 L813.026 293.761 L813.026 299.155 L808.767 299.155 L808.767 293.761 Z" fill="#000000" fill-rule="nonzero" fill-opacity="1" /><path clip-path="url(#clip370)" d="M831.984 306.84 Q828.558 306.84 826.567 309.525 Q824.577 312.187 824.577 316.84 Q824.577 321.493 826.544 324.178 Q828.535 326.84 831.984 326.84 Q835.387 326.84 837.378 324.155 Q839.368 321.47 839.368 316.84 Q839.368 312.234 837.378 309.548 Q835.387 306.84 831.984 306.84 M831.984 303.229 Q837.54 303.229 840.711 306.84 Q843.882 310.451 843.882 316.84 Q843.882 323.206 840.711 326.84 Q837.54 330.451 831.984 330.451 Q826.405 330.451 823.234 326.84 Q820.086 323.206 820.086 316.84 Q820.086 310.451 823.234 306.84 Q826.405 303.229 831.984 303.229 Z" fill="#000000" fill-rule="nonzero" fill-opacity="1" /><path clip-path="url(#clip370)" d="M872.493 314.132 L872.493 329.78 L868.234 329.78 L868.234 314.271 Q868.234 310.59 866.799 308.761 Q865.364 306.933 862.493 306.933 Q859.044 306.933 857.053 309.132 Q855.063 311.331 855.063 315.127 L855.063 329.78 L850.78 329.78 L850.78 303.854 L855.063 303.854 L855.063 307.882 Q856.59 305.544 858.651 304.386 Q860.734 303.229 863.442 303.229 Q867.91 303.229 870.202 306.007 Q872.493 308.761 872.493 314.132 Z" fill="#000000" fill-rule="nonzero" fill-opacity="1" /><circle clip-path="url(#clip370)" cx="498.471" cy="364.34" r="20.9455" fill="#009af9" fill-rule="evenodd" fill-opacity="1" stroke="#000000" stroke-opacity="1" stroke-width="8.37818"/>
<path clip-path="url(#clip370)" d="M661.684 350.231 Q656.592 350.231 653.582 354.027 Q650.596 357.824 650.596 364.374 Q650.596 370.902 653.582 374.698 Q656.592 378.495 661.684 378.495 Q666.777 378.495 669.74 374.698 Q672.726 370.902 672.726 364.374 Q672.726 357.824 669.74 354.027 Q666.777 350.231 661.684 350.231 M661.684 346.435 Q668.953 346.435 673.304 351.319 Q677.656 356.18 677.656 364.374 Q677.656 372.546 673.304 377.43 Q668.953 382.291 661.684 382.291 Q654.392 382.291 650.018 377.43 Q645.666 372.569 645.666 364.374 Q645.666 356.18 650.018 351.319 Q654.392 346.435 661.684 346.435 Z" fill="#000000" fill-rule="nonzero" fill-opacity="1" /><path clip-path="url(#clip370)" d="M703.397 368.68 Q703.397 363.981 701.452 361.319 Q699.531 358.634 696.152 358.634 Q692.772 358.634 690.827 361.319 Q688.906 363.981 688.906 368.68 Q688.906 373.379 690.827 376.064 Q692.772 378.726 696.152 378.726 Q699.531 378.726 701.452 376.064 Q703.397 373.379 703.397 368.68 M688.906 359.629 Q690.249 357.314 692.286 356.203 Q694.346 355.069 697.193 355.069 Q701.915 355.069 704.855 358.819 Q707.818 362.569 707.818 368.68 Q707.818 374.791 704.855 378.541 Q701.915 382.291 697.193 382.291 Q694.346 382.291 692.286 381.18 Q690.249 380.046 688.906 377.731 L688.906 381.62 L684.624 381.62 L684.624 345.601 L688.906 345.601 L688.906 359.629 Z" fill="#000000" fill-rule="nonzero" fill-opacity="1" /><path clip-path="url(#clip370)" d="M731.406 356.458 L731.406 360.486 Q729.6 359.56 727.656 359.097 Q725.712 358.634 723.628 358.634 Q720.457 358.634 718.86 359.606 Q717.286 360.578 717.286 362.523 Q717.286 364.004 718.42 364.861 Q719.554 365.694 722.98 366.458 L724.438 366.782 Q728.975 367.754 730.874 369.536 Q732.795 371.296 732.795 374.467 Q732.795 378.078 729.924 380.185 Q727.077 382.291 722.077 382.291 Q719.994 382.291 717.725 381.874 Q715.48 381.481 712.98 380.671 L712.98 376.273 Q715.341 377.499 717.633 378.124 Q719.925 378.726 722.17 378.726 Q725.179 378.726 726.8 377.708 Q728.42 376.666 728.42 374.791 Q728.42 373.055 727.239 372.129 Q726.082 371.203 722.124 370.347 L720.642 369.999 Q716.684 369.166 714.925 367.453 Q713.165 365.717 713.165 362.708 Q713.165 359.05 715.758 357.06 Q718.35 355.069 723.119 355.069 Q725.48 355.069 727.563 355.416 Q729.647 355.763 731.406 356.458 Z" fill="#000000" fill-rule="nonzero" fill-opacity="1" /><path clip-path="url(#clip370)" d="M761.753 367.592 L761.753 369.675 L742.17 369.675 Q742.448 374.073 744.809 376.388 Q747.193 378.68 751.429 378.68 Q753.883 378.68 756.174 378.078 Q758.489 377.476 760.758 376.273 L760.758 380.3 Q758.466 381.272 756.059 381.782 Q753.651 382.291 751.174 382.291 Q744.971 382.291 741.336 378.68 Q737.725 375.069 737.725 368.911 Q737.725 362.546 741.151 358.819 Q744.6 355.069 750.434 355.069 Q755.665 355.069 758.697 358.449 Q761.753 361.805 761.753 367.592 M757.494 366.342 Q757.447 362.847 755.526 360.763 Q753.628 358.68 750.48 358.68 Q746.915 358.68 744.762 360.694 Q742.633 362.708 742.309 366.365 L757.494 366.342 Z" fill="#000000" fill-rule="nonzero" fill-opacity="1" /><path clip-path="url(#clip370)" d="M783.767 359.675 Q783.049 359.259 782.193 359.074 Q781.359 358.865 780.341 358.865 Q776.73 358.865 774.785 361.226 Q772.864 363.564 772.864 367.962 L772.864 381.62 L768.582 381.62 L768.582 355.694 L772.864 355.694 L772.864 359.722 Q774.207 357.361 776.359 356.226 Q778.512 355.069 781.591 355.069 Q782.031 355.069 782.563 355.138 Q783.096 355.185 783.744 355.3 L783.767 359.675 Z" fill="#000000" fill-rule="nonzero" fill-opacity="1" /><path clip-path="url(#clip370)" d="M785.179 355.694 L789.693 355.694 L797.795 377.453 L805.896 355.694 L810.41 355.694 L800.688 381.62 L794.901 381.62 L785.179 355.694 Z" fill="#000000" fill-rule="nonzero" fill-opacity="1" /><path clip-path="url(#clip370)" d="M828.072 368.587 Q822.91 368.587 820.919 369.768 Q818.929 370.948 818.929 373.796 Q818.929 376.064 820.41 377.407 Q821.915 378.726 824.484 378.726 Q828.026 378.726 830.155 376.226 Q832.308 373.703 832.308 369.536 L832.308 368.587 L828.072 368.587 M836.567 366.828 L836.567 381.62 L832.308 381.62 L832.308 377.685 Q830.85 380.046 828.674 381.18 Q826.498 382.291 823.35 382.291 Q819.368 382.291 817.007 380.069 Q814.669 377.823 814.669 374.073 Q814.669 369.698 817.586 367.476 Q820.526 365.254 826.336 365.254 L832.308 365.254 L832.308 364.837 Q832.308 361.898 830.364 360.3 Q828.442 358.68 824.947 358.68 Q822.725 358.68 820.618 359.212 Q818.512 359.745 816.568 360.81 L816.568 356.874 Q818.906 355.972 821.105 355.532 Q823.304 355.069 825.387 355.069 Q831.012 355.069 833.79 357.986 Q836.567 360.902 836.567 366.828 Z" fill="#000000" fill-rule="nonzero" fill-opacity="1" /><path clip-path="url(#clip370)" d="M849.553 348.333 L849.553 355.694 L858.327 355.694 L858.327 359.004 L849.553 359.004 L849.553 373.078 Q849.553 376.249 850.41 377.152 Q851.29 378.055 853.952 378.055 L858.327 378.055 L858.327 381.62 L853.952 381.62 Q849.021 381.62 847.146 379.791 Q845.271 377.939 845.271 373.078 L845.271 359.004 L842.146 359.004 L842.146 355.694 L845.271 355.694 L845.271 348.333 L849.553 348.333 Z" fill="#000000" fill-rule="nonzero" fill-opacity="1" /><path clip-path="url(#clip370)" d="M863.928 355.694 L868.188 355.694 L868.188 381.62 L863.928 381.62 L863.928 355.694 M863.928 345.601 L868.188 345.601 L868.188 350.995 L863.928 350.995 L863.928 345.601 Z" fill="#000000" fill-rule="nonzero" fill-opacity="1" /><path clip-path="url(#clip370)" d="M887.146 358.68 Q883.72 358.68 881.729 361.365 Q879.739 364.027 879.739 368.68 Q879.739 373.333 881.706 376.018 Q883.697 378.68 887.146 378.68 Q890.549 378.68 892.539 375.995 Q894.53 373.31 894.53 368.68 Q894.53 364.074 892.539 361.388 Q890.549 358.68 887.146 358.68 M887.146 355.069 Q892.701 355.069 895.873 358.68 Q899.044 362.291 899.044 368.68 Q899.044 375.046 895.873 378.68 Q892.701 382.291 887.146 382.291 Q881.567 382.291 878.396 378.68 Q875.248 375.046 875.248 368.68 Q875.248 362.291 878.396 358.68 Q881.567 355.069 887.146 355.069 Z" fill="#000000" fill-rule="nonzero" fill-opacity="1" /><path clip-path="url(#clip370)" d="M927.655 365.972 L927.655 381.62 L923.396 381.62 L923.396 366.111 Q923.396 362.43 921.961 360.601 Q920.525 358.773 917.655 358.773 Q914.206 358.773 912.215 360.972 Q910.224 363.171 910.224 366.967 L910.224 381.62 L905.942 381.62 L905.942 355.694 L910.224 355.694 L910.224 359.722 Q911.752 357.384 913.812 356.226 Q915.896 355.069 918.604 355.069 Q923.072 355.069 925.363 357.847 Q927.655 360.601 927.655 365.972 Z" fill="#000000" fill-rule="nonzero" fill-opacity="1" /><circle clip-path="url(#clip370)" cx="498.471" cy="416.18" r="20.48" fill="#009af9" fill-rule="evenodd" fill-opacity="1" stroke="#ffffff" stroke-opacity="1" stroke-width="10.24"/>
<path clip-path="url(#clip370)" d="M645.666 398.9 L674.902 398.9 L674.902 402.835 L662.633 402.835 L662.633 433.46 L657.934 433.46 L657.934 402.835 L645.666 402.835 L645.666 398.9 Z" fill="#000000" fill-rule="nonzero" fill-opacity="1" /><path clip-path="url(#clip370)" d="M693.351 419.432 L693.351 421.515 L673.767 421.515 Q674.045 425.913 676.406 428.228 Q678.791 430.52 683.027 430.52 Q685.48 430.52 687.772 429.918 Q690.087 429.316 692.355 428.113 L692.355 432.14 Q690.064 433.112 687.656 433.622 Q685.249 434.131 682.772 434.131 Q676.568 434.131 672.934 430.52 Q669.323 426.909 669.323 420.751 Q669.323 414.386 672.749 410.659 Q676.198 406.909 682.031 406.909 Q687.263 406.909 690.295 410.289 Q693.351 413.645 693.351 419.432 M689.091 418.182 Q689.045 414.687 687.124 412.603 Q685.226 410.52 682.078 410.52 Q678.513 410.52 676.36 412.534 Q674.23 414.548 673.906 418.205 L689.091 418.182 Z" fill="#000000" fill-rule="nonzero" fill-opacity="1" /><path clip-path="url(#clip370)" d="M716.869 408.298 L716.869 412.326 Q715.063 411.4 713.119 410.937 Q711.175 410.474 709.091 410.474 Q705.92 410.474 704.323 411.446 Q702.749 412.418 702.749 414.363 Q702.749 415.844 703.883 416.701 Q705.017 417.534 708.443 418.298 L709.901 418.622 Q714.438 419.594 716.337 421.376 Q718.258 423.136 718.258 426.307 Q718.258 429.918 715.388 432.025 Q712.54 434.131 707.54 434.131 Q705.457 434.131 703.189 433.714 Q700.943 433.321 698.443 432.511 L698.443 428.113 Q700.804 429.339 703.096 429.964 Q705.388 430.566 707.633 430.566 Q710.642 430.566 712.263 429.548 Q713.883 428.506 713.883 426.631 Q713.883 424.895 712.702 423.969 Q711.545 423.043 707.587 422.187 L706.105 421.839 Q702.147 421.006 700.388 419.293 Q698.628 417.557 698.628 414.548 Q698.628 410.89 701.221 408.9 Q703.814 406.909 708.582 406.909 Q710.943 406.909 713.026 407.256 Q715.11 407.603 716.869 408.298 Z" fill="#000000" fill-rule="nonzero" fill-opacity="1" /><path clip-path="url(#clip370)" d="M729.253 400.173 L729.253 407.534 L738.026 407.534 L738.026 410.844 L729.253 410.844 L729.253 424.918 Q729.253 428.089 730.11 428.992 Q730.989 429.895 733.651 429.895 L738.026 429.895 L738.026 433.46 L733.651 433.46 Q728.721 433.46 726.846 431.631 Q724.971 429.779 724.971 424.918 L724.971 410.844 L721.846 410.844 L721.846 407.534 L724.971 407.534 L724.971 400.173 L729.253 400.173 Z" fill="#000000" fill-rule="nonzero" fill-opacity="1" /><path clip-path="url(#clip370)" d="M768.744 410.52 Q765.318 410.52 763.327 413.205 Q761.336 415.867 761.336 420.52 Q761.336 425.173 763.304 427.858 Q765.295 430.52 768.744 430.52 Q772.146 430.52 774.137 427.835 Q776.128 425.15 776.128 420.52 Q776.128 415.914 774.137 413.228 Q772.146 410.52 768.744 410.52 M768.744 406.909 Q774.299 406.909 777.471 410.52 Q780.642 414.131 780.642 420.52 Q780.642 426.886 777.471 430.52 Q774.299 434.131 768.744 434.131 Q763.165 434.131 759.994 430.52 Q756.846 426.886 756.846 420.52 Q756.846 414.131 759.994 410.52 Q763.165 406.909 768.744 406.909 Z" fill="#000000" fill-rule="nonzero" fill-opacity="1" /><path clip-path="url(#clip370)" d="M806.313 420.52 Q806.313 415.821 804.369 413.159 Q802.447 410.474 799.068 410.474 Q795.688 410.474 793.744 413.159 Q791.822 415.821 791.822 420.52 Q791.822 425.219 793.744 427.904 Q795.688 430.566 799.068 430.566 Q802.447 430.566 804.369 427.904 Q806.313 425.219 806.313 420.52 M791.822 411.469 Q793.165 409.154 795.202 408.043 Q797.262 406.909 800.109 406.909 Q804.832 406.909 807.771 410.659 Q810.734 414.409 810.734 420.52 Q810.734 426.631 807.771 430.381 Q804.832 434.131 800.109 434.131 Q797.262 434.131 795.202 433.02 Q793.165 431.886 791.822 429.571 L791.822 433.46 L787.54 433.46 L787.54 397.441 L791.822 397.441 L791.822 411.469 Z" fill="#000000" fill-rule="nonzero" fill-opacity="1" /><path clip-path="url(#clip370)" d="M834.322 408.298 L834.322 412.326 Q832.517 411.4 830.572 410.937 Q828.628 410.474 826.544 410.474 Q823.373 410.474 821.776 411.446 Q820.202 412.418 820.202 414.363 Q820.202 415.844 821.336 416.701 Q822.47 417.534 825.896 418.298 L827.355 418.622 Q831.892 419.594 833.79 421.376 Q835.711 423.136 835.711 426.307 Q835.711 429.918 832.841 432.025 Q829.993 434.131 824.993 434.131 Q822.91 434.131 820.642 433.714 Q818.396 433.321 815.896 432.511 L815.896 428.113 Q818.257 429.339 820.549 429.964 Q822.841 430.566 825.086 430.566 Q828.095 430.566 829.716 429.548 Q831.336 428.506 831.336 426.631 Q831.336 424.895 830.155 423.969 Q828.998 423.043 825.04 422.187 L823.558 421.839 Q819.6 421.006 817.841 419.293 Q816.081 417.557 816.081 414.548 Q816.081 410.89 818.674 408.9 Q821.267 406.909 826.035 406.909 Q828.396 406.909 830.48 407.256 Q832.563 407.603 834.322 408.298 Z" fill="#000000" fill-rule="nonzero" fill-opacity="1" /><path clip-path="url(#clip370)" d="M864.669 419.432 L864.669 421.515 L845.086 421.515 Q845.364 425.913 847.725 428.228 Q850.109 430.52 854.345 430.52 Q856.799 430.52 859.09 429.918 Q861.405 429.316 863.674 428.113 L863.674 432.14 Q861.382 433.112 858.975 433.622 Q856.567 434.131 854.09 434.131 Q847.887 434.131 844.253 430.52 Q840.641 426.909 840.641 420.751 Q840.641 414.386 844.067 410.659 Q847.516 406.909 853.35 406.909 Q858.581 406.909 861.614 410.289 Q864.669 413.645 864.669 419.432 M860.41 418.182 Q860.364 414.687 858.442 412.603 Q856.544 410.52 853.396 410.52 Q849.831 410.52 847.678 412.534 Q845.549 414.548 845.225 418.205 L860.41 418.182 Z" fill="#000000" fill-rule="nonzero" fill-opacity="1" /><path clip-path="url(#clip370)" d="M886.683 411.515 Q885.965 411.099 885.109 410.914 Q884.276 410.705 883.257 410.705 Q879.646 410.705 877.701 413.066 Q875.78 415.404 875.78 419.802 L875.78 433.46 L871.498 433.46 L871.498 407.534 L875.78 407.534 L875.78 411.562 Q877.123 409.201 879.276 408.066 Q881.428 406.909 884.507 406.909 Q884.947 406.909 885.479 406.978 Q886.012 407.025 886.66 407.14 L886.683 411.515 Z" fill="#000000" fill-rule="nonzero" fill-opacity="1" /><path clip-path="url(#clip370)" d="M888.095 407.534 L892.609 407.534 L900.711 429.293 L908.812 407.534 L913.326 407.534 L903.604 433.46 L897.817 433.46 L888.095 407.534 Z" fill="#000000" fill-rule="nonzero" fill-opacity="1" /><path clip-path="url(#clip370)" d="M930.988 420.427 Q925.826 420.427 923.835 421.608 Q921.845 422.788 921.845 425.636 Q921.845 427.904 923.326 429.247 Q924.831 430.566 927.4 430.566 Q930.942 430.566 933.072 428.066 Q935.224 425.543 935.224 421.376 L935.224 420.427 L930.988 420.427 M939.484 418.668 L939.484 433.46 L935.224 433.46 L935.224 429.525 Q933.766 431.886 931.59 433.02 Q929.414 434.131 926.266 434.131 Q922.285 434.131 919.923 431.909 Q917.586 429.663 917.586 425.913 Q917.586 421.538 920.502 419.316 Q923.442 417.094 929.252 417.094 L935.224 417.094 L935.224 416.677 Q935.224 413.738 933.28 412.14 Q931.359 410.52 927.863 410.52 Q925.641 410.52 923.535 411.052 Q921.428 411.585 919.484 412.65 L919.484 408.714 Q921.822 407.812 924.021 407.372 Q926.22 406.909 928.303 406.909 Q933.928 406.909 936.706 409.826 Q939.484 412.742 939.484 418.668 Z" fill="#000000" fill-rule="nonzero" fill-opacity="1" /><path clip-path="url(#clip370)" d="M952.47 400.173 L952.47 407.534 L961.243 407.534 L961.243 410.844 L952.47 410.844 L952.47 424.918 Q952.47 428.089 953.326 428.992 Q954.206 429.895 956.868 429.895 L961.243 429.895 L961.243 433.46 L956.868 433.46 Q951.937 433.46 950.062 431.631 Q948.187 429.779 948.187 424.918 L948.187 410.844 L945.062 410.844 L945.062 407.534 L948.187 407.534 L948.187 400.173 L952.47 400.173 Z" fill="#000000" fill-rule="nonzero" fill-opacity="1" /><path clip-path="url(#clip370)" d="M966.845 407.534 L971.104 407.534 L971.104 433.46 L966.845 433.46 L966.845 407.534 M966.845 397.441 L971.104 397.441 L971.104 402.835 L966.845 402.835 L966.845 397.441 Z" fill="#000000" fill-rule="nonzero" fill-opacity="1" /><path clip-path="url(#clip370)" d="M990.062 410.52 Q986.636 410.52 984.645 413.205 Q982.655 415.867 982.655 420.52 Q982.655 425.173 984.622 427.858 Q986.613 430.52 990.062 430.52 Q993.465 430.52 995.455 427.835 Q997.446 425.15 997.446 420.52 Q997.446 415.914 995.455 413.228 Q993.465 410.52 990.062 410.52 M990.062 406.909 Q995.618 406.909 998.789 410.52 Q1001.96 414.131 1001.96 420.52 Q1001.96 426.886 998.789 430.52 Q995.618 434.131 990.062 434.131 Q984.483 434.131 981.312 430.52 Q978.164 426.886 978.164 420.52 Q978.164 414.131 981.312 410.52 Q984.483 406.909 990.062 406.909 Z" fill="#000000" fill-rule="nonzero" fill-opacity="1" /><path clip-path="url(#clip370)" d="M1030.57 417.812 L1030.57 433.46 L1026.31 433.46 L1026.31 417.951 Q1026.31 414.27 1024.88 412.441 Q1023.44 410.613 1020.57 410.613 Q1017.12 410.613 1015.13 412.812 Q1013.14 415.011 1013.14 418.807 L1013.14 433.46 L1008.86 433.46 L1008.86 407.534 L1013.14 407.534 L1013.14 411.562 Q1014.67 409.224 1016.73 408.066 Q1018.81 406.909 1021.52 406.909 Q1025.99 406.909 1028.28 409.687 Q1030.57 412.441 1030.57 417.812 Z" fill="#000000" fill-rule="nonzero" fill-opacity="1" /></svg>
