<?xml version="1.0" encoding="utf-8"?>
<svg xmlns="http://www.w3.org/2000/svg" xmlns:xlink="http://www.w3.org/1999/xlink" width="800" height="600" viewBox="0 0 3200 2400">
<defs>
  <clipPath id="clip670">
    <rect x="0" y="0" width="3200" height="2400"/>
  </clipPath>
</defs>
<path clip-path="url(#clip670)" d="M0 2400 L3200 2400 L3200 0 L0 0  Z" fill="#ffffff" fill-rule="evenodd" fill-opacity="1"/>
<defs>
  <clipPath id="clip671">
    <rect x="640" y="0" width="2241" height="2241"/>
  </clipPath>
</defs>
<path clip-path="url(#clip670)" d="M248.065 2274.13 L3152.76 2274.13 L3152.76 131.032 L248.065 131.032  Z" fill="#ffffff" fill-rule="evenodd" fill-opacity="1"/>
<defs>
  <clipPath id="clip672">
    <rect x="248" y="131" width="2906" height="2144"/>
  </clipPath>
</defs>
<polyline clip-path="url(#clip672)" style="stroke:#000000; stroke-linecap:round; stroke-linejoin:round; stroke-width:2; stroke-opacity:0.1; fill:none" points="330.274,2274.13 330.274,131.032 "/>
<polyline clip-path="url(#clip672)" style="stroke:#000000; stroke-linecap:round; stroke-linejoin:round; stroke-width:2; stroke-opacity:0.1; fill:none" points="1054.91,2274.13 1054.91,131.032 "/>
<polyline clip-path="url(#clip672)" style="stroke:#000000; stroke-linecap:round; stroke-linejoin:round; stroke-width:2; stroke-opacity:0.1; fill:none" points="1779.14,2274.13 1779.14,131.032 "/>
<polyline clip-path="url(#clip672)" style="stroke:#000000; stroke-linecap:round; stroke-linejoin:round; stroke-width:2; stroke-opacity:0.1; fill:none" points="2503.38,2274.13 2503.38,131.032 "/>
<polyline clip-path="url(#clip670)" style="stroke:#000000; stroke-linecap:round; stroke-linejoin:round; stroke-width:4; stroke-opacity:1; fill:none" points="248.065,2274.13 3152.76,2274.13 "/>
<polyline clip-path="url(#clip670)" style="stroke:#000000; stroke-linecap:round; stroke-linejoin:round; stroke-width:4; stroke-opacity:1; fill:none" points="330.274,2274.13 330.274,2255.23 "/>
<polyline clip-path="url(#clip670)" style="stroke:#000000; stroke-linecap:round; stroke-linejoin:round; stroke-width:4; stroke-opacity:1; fill:none" points="1054.91,2274.13 1054.91,2255.23 "/>
<polyline clip-path="url(#clip670)" style="stroke:#000000; stroke-linecap:round; stroke-linejoin:round; stroke-width:4; stroke-opacity:1; fill:none" points="1779.14,2274.13 1779.14,2255.23 "/>
<polyline clip-path="url(#clip670)" style="stroke:#000000; stroke-linecap:round; stroke-linejoin:round; stroke-width:4; stroke-opacity:1; fill:none" points="2503.38,2274.13 2503.38,2255.23 "/>
<path clip-path="url(#clip670)" d="M202.068 2338.99 L218.388 2338.99 L218.388 2342.93 L196.443 2342.93 L196.443 2338.99 Q199.105 2336.24 203.689 2331.61 Q208.295 2326.96 209.476 2325.61 Q211.721 2323.09 212.601 2321.35 Q213.503 2319.59 213.503 2317.9 Q213.503 2315.15 211.559 2313.41 Q209.638 2311.68 206.536 2311.68 Q204.337 2311.68 201.883 2312.44 Q199.453 2313.21 196.675 2314.76 L196.675 2310.03 Q199.499 2308.9 201.953 2308.32 Q204.406 2307.74 206.443 2307.74 Q211.814 2307.74 215.008 2310.43 Q218.203 2313.11 218.203 2317.6 Q218.203 2319.73 217.392 2321.65 Q216.605 2323.55 214.499 2326.15 Q213.92 2326.82 210.818 2330.03 Q207.716 2333.23 202.068 2338.99 Z" fill="#000000" fill-rule="nonzero" fill-opacity="1" /><path clip-path="url(#clip670)" d="M238.202 2311.45 Q234.591 2311.45 232.763 2315.01 Q230.957 2318.55 230.957 2325.68 Q230.957 2332.79 232.763 2336.35 Q234.591 2339.9 238.202 2339.9 Q241.837 2339.9 243.642 2336.35 Q245.471 2332.79 245.471 2325.68 Q245.471 2318.55 243.642 2315.01 Q241.837 2311.45 238.202 2311.45 M238.202 2307.74 Q244.013 2307.74 247.068 2312.35 Q250.147 2316.93 250.147 2325.68 Q250.147 2334.41 247.068 2339.02 Q244.013 2343.6 238.202 2343.6 Q232.392 2343.6 229.314 2339.02 Q226.258 2334.41 226.258 2325.68 Q226.258 2316.93 229.314 2312.35 Q232.392 2307.74 238.202 2307.74 Z" fill="#000000" fill-rule="nonzero" fill-opacity="1" /><path clip-path="url(#clip670)" d="M268.364 2311.45 Q264.753 2311.45 262.924 2315.01 Q261.119 2318.55 261.119 2325.68 Q261.119 2332.79 262.924 2336.35 Q264.753 2339.9 268.364 2339.9 Q271.999 2339.9 273.804 2336.35 Q275.633 2332.79 275.633 2325.68 Q275.633 2318.55 273.804 2315.01 Q271.999 2311.45 268.364 2311.45 M268.364 2307.74 Q274.174 2307.74 277.23 2312.35 Q280.309 2316.93 280.309 2325.68 Q280.309 2334.41 277.23 2339.02 Q274.174 2343.6 268.364 2343.6 Q262.554 2343.6 259.475 2339.02 Q256.42 2334.41 256.42 2325.68 Q256.42 2316.93 259.475 2312.35 Q262.554 2307.74 268.364 2307.74 Z" fill="#000000" fill-rule="nonzero" fill-opacity="1" /><path clip-path="url(#clip670)" d="M301.373 2312.44 L289.568 2330.89 L301.373 2330.89 L301.373 2312.44 M300.147 2308.37 L306.026 2308.37 L306.026 2330.89 L310.957 2330.89 L310.957 2334.78 L306.026 2334.78 L306.026 2342.93 L301.373 2342.93 L301.373 2334.78 L285.772 2334.78 L285.772 2330.27 L300.147 2308.37 Z" fill="#000000" fill-rule="nonzero" fill-opacity="1" /><path clip-path="url(#clip670)" d="M315.933 2328.04 L328.41 2328.04 L328.41 2331.84 L315.933 2331.84 L315.933 2328.04 Z" fill="#000000" fill-rule="nonzero" fill-opacity="1" /><path clip-path="url(#clip670)" d="M345.794 2311.45 Q342.183 2311.45 340.355 2315.01 Q338.549 2318.55 338.549 2325.68 Q338.549 2332.79 340.355 2336.35 Q342.183 2339.9 345.794 2339.9 Q349.429 2339.9 351.234 2336.35 Q353.063 2332.79 353.063 2325.68 Q353.063 2318.55 351.234 2315.01 Q349.429 2311.45 345.794 2311.45 M345.794 2307.74 Q351.605 2307.74 354.66 2312.35 Q357.739 2316.93 357.739 2325.68 Q357.739 2334.41 354.66 2339.02 Q351.605 2343.6 345.794 2343.6 Q339.984 2343.6 336.906 2339.02 Q333.85 2334.41 333.85 2325.68 Q333.85 2316.93 336.906 2312.35 Q339.984 2307.74 345.794 2307.74 Z" fill="#000000" fill-rule="nonzero" fill-opacity="1" /><path clip-path="url(#clip670)" d="M366.767 2338.99 L374.405 2338.99 L374.405 2312.63 L366.095 2314.29 L366.095 2310.03 L374.359 2308.37 L379.035 2308.37 L379.035 2338.99 L386.674 2338.99 L386.674 2342.93 L366.767 2342.93 L366.767 2338.99 Z" fill="#000000" fill-rule="nonzero" fill-opacity="1" /><path clip-path="url(#clip670)" d="M393.364 2328.04 L405.84 2328.04 L405.84 2331.84 L393.364 2331.84 L393.364 2328.04 Z" fill="#000000" fill-rule="nonzero" fill-opacity="1" /><path clip-path="url(#clip670)" d="M423.225 2311.45 Q419.613 2311.45 417.785 2315.01 Q415.979 2318.55 415.979 2325.68 Q415.979 2332.79 417.785 2336.35 Q419.613 2339.9 423.225 2339.9 Q426.859 2339.9 428.664 2336.35 Q430.493 2332.79 430.493 2325.68 Q430.493 2318.55 428.664 2315.01 Q426.859 2311.45 423.225 2311.45 M423.225 2307.74 Q429.035 2307.74 432.09 2312.35 Q435.169 2316.93 435.169 2325.68 Q435.169 2334.41 432.09 2339.02 Q429.035 2343.6 423.225 2343.6 Q417.414 2343.6 414.336 2339.02 Q411.28 2334.41 411.28 2325.68 Q411.28 2316.93 414.336 2312.35 Q417.414 2307.74 423.225 2307.74 Z" fill="#000000" fill-rule="nonzero" fill-opacity="1" /><path clip-path="url(#clip670)" d="M444.197 2338.99 L451.836 2338.99 L451.836 2312.63 L443.525 2314.29 L443.525 2310.03 L451.789 2308.37 L456.465 2308.37 L456.465 2338.99 L464.104 2338.99 L464.104 2342.93 L444.197 2342.93 L444.197 2338.99 Z" fill="#000000" fill-rule="nonzero" fill-opacity="1" /><path clip-path="url(#clip670)" d="M926.7 2338.99 L943.019 2338.99 L943.019 2342.93 L921.075 2342.93 L921.075 2338.99 Q923.737 2336.24 928.32 2331.61 Q932.927 2326.96 934.107 2325.61 Q936.353 2323.09 937.232 2321.35 Q938.135 2319.59 938.135 2317.9 Q938.135 2315.15 936.191 2313.41 Q934.269 2311.68 931.168 2311.68 Q928.969 2311.68 926.515 2312.44 Q924.084 2313.21 921.307 2314.76 L921.307 2310.03 Q924.131 2308.9 926.584 2308.32 Q929.038 2307.74 931.075 2307.74 Q936.445 2307.74 939.64 2310.43 Q942.834 2313.11 942.834 2317.6 Q942.834 2319.73 942.024 2321.65 Q941.237 2323.55 939.131 2326.15 Q938.552 2326.82 935.45 2330.03 Q932.348 2333.23 926.7 2338.99 Z" fill="#000000" fill-rule="nonzero" fill-opacity="1" /><path clip-path="url(#clip670)" d="M962.834 2311.45 Q959.223 2311.45 957.394 2315.01 Q955.589 2318.55 955.589 2325.68 Q955.589 2332.79 957.394 2336.35 Q959.223 2339.9 962.834 2339.9 Q966.468 2339.9 968.274 2336.35 Q970.103 2332.79 970.103 2325.68 Q970.103 2318.55 968.274 2315.01 Q966.468 2311.45 962.834 2311.45 M962.834 2307.74 Q968.644 2307.74 971.7 2312.35 Q974.779 2316.93 974.779 2325.68 Q974.779 2334.41 971.7 2339.02 Q968.644 2343.6 962.834 2343.6 Q957.024 2343.6 953.945 2339.02 Q950.89 2334.41 950.89 2325.68 Q950.89 2316.93 953.945 2312.35 Q957.024 2307.74 962.834 2307.74 Z" fill="#000000" fill-rule="nonzero" fill-opacity="1" /><path clip-path="url(#clip670)" d="M992.996 2311.45 Q989.385 2311.45 987.556 2315.01 Q985.751 2318.55 985.751 2325.68 Q985.751 2332.79 987.556 2336.35 Q989.385 2339.9 992.996 2339.9 Q996.63 2339.9 998.436 2336.35 Q1000.26 2332.79 1000.26 2325.68 Q1000.26 2318.55 998.436 2315.01 Q996.63 2311.45 992.996 2311.45 M992.996 2307.74 Q998.806 2307.74 1001.86 2312.35 Q1004.94 2316.93 1004.94 2325.68 Q1004.94 2334.41 1001.86 2339.02 Q998.806 2343.6 992.996 2343.6 Q987.186 2343.6 984.107 2339.02 Q981.052 2334.41 981.052 2325.68 Q981.052 2316.93 984.107 2312.35 Q987.186 2307.74 992.996 2307.74 Z" fill="#000000" fill-rule="nonzero" fill-opacity="1" /><path clip-path="url(#clip670)" d="M1013.3 2342.21 L1013.3 2337.95 Q1015.06 2338.78 1016.86 2339.22 Q1018.67 2339.66 1020.4 2339.66 Q1025.03 2339.66 1027.46 2336.56 Q1029.92 2333.44 1030.26 2327.09 Q1028.92 2329.09 1026.86 2330.15 Q1024.8 2331.21 1022.3 2331.21 Q1017.12 2331.21 1014.08 2328.09 Q1011.07 2324.94 1011.07 2319.5 Q1011.07 2314.18 1014.22 2310.96 Q1017.37 2307.74 1022.6 2307.74 Q1028.6 2307.74 1031.75 2312.35 Q1034.92 2316.93 1034.92 2325.68 Q1034.92 2333.85 1031.03 2338.74 Q1027.16 2343.6 1020.61 2343.6 Q1018.85 2343.6 1017.05 2343.25 Q1015.24 2342.9 1013.3 2342.21 M1022.6 2327.56 Q1025.75 2327.56 1027.58 2325.4 Q1029.43 2323.25 1029.43 2319.5 Q1029.43 2315.78 1027.58 2313.62 Q1025.75 2311.45 1022.6 2311.45 Q1019.45 2311.45 1017.6 2313.62 Q1015.77 2315.78 1015.77 2319.5 Q1015.77 2323.25 1017.6 2325.4 Q1019.45 2327.56 1022.6 2327.56 Z" fill="#000000" fill-rule="nonzero" fill-opacity="1" /><path clip-path="url(#clip670)" d="M1040.57 2328.04 L1053.04 2328.04 L1053.04 2331.84 L1040.57 2331.84 L1040.57 2328.04 Z" fill="#000000" fill-rule="nonzero" fill-opacity="1" /><path clip-path="url(#clip670)" d="M1070.43 2311.45 Q1066.82 2311.45 1064.99 2315.01 Q1063.18 2318.55 1063.18 2325.68 Q1063.18 2332.79 1064.99 2336.35 Q1066.82 2339.9 1070.43 2339.9 Q1074.06 2339.9 1075.87 2336.35 Q1077.69 2332.79 1077.69 2325.68 Q1077.69 2318.55 1075.87 2315.01 Q1074.06 2311.45 1070.43 2311.45 M1070.43 2307.74 Q1076.24 2307.74 1079.29 2312.35 Q1082.37 2316.93 1082.37 2325.68 Q1082.37 2334.41 1079.29 2339.02 Q1076.24 2343.6 1070.43 2343.6 Q1064.62 2343.6 1061.54 2339.02 Q1058.48 2334.41 1058.48 2325.68 Q1058.48 2316.93 1061.54 2312.35 Q1064.62 2307.74 1070.43 2307.74 Z" fill="#000000" fill-rule="nonzero" fill-opacity="1" /><path clip-path="url(#clip670)" d="M1091.4 2338.99 L1099.04 2338.99 L1099.04 2312.63 L1090.73 2314.29 L1090.73 2310.03 L1098.99 2308.37 L1103.67 2308.37 L1103.67 2338.99 L1111.31 2338.99 L1111.31 2342.93 L1091.4 2342.93 L1091.4 2338.99 Z" fill="#000000" fill-rule="nonzero" fill-opacity="1" /><path clip-path="url(#clip670)" d="M1118 2328.04 L1130.47 2328.04 L1130.47 2331.84 L1118 2331.84 L1118 2328.04 Z" fill="#000000" fill-rule="nonzero" fill-opacity="1" /><path clip-path="url(#clip670)" d="M1147.86 2311.45 Q1144.25 2311.45 1142.42 2315.01 Q1140.61 2318.55 1140.61 2325.68 Q1140.61 2332.79 1142.42 2336.35 Q1144.25 2339.9 1147.86 2339.9 Q1151.49 2339.9 1153.3 2336.35 Q1155.12 2332.79 1155.12 2325.68 Q1155.12 2318.55 1153.3 2315.01 Q1151.49 2311.45 1147.86 2311.45 M1147.86 2307.74 Q1153.67 2307.74 1156.72 2312.35 Q1159.8 2316.93 1159.8 2325.68 Q1159.8 2334.41 1156.72 2339.02 Q1153.67 2343.6 1147.86 2343.6 Q1142.05 2343.6 1138.97 2339.02 Q1135.91 2334.41 1135.91 2325.68 Q1135.91 2316.93 1138.97 2312.35 Q1142.05 2307.74 1147.86 2307.74 Z" fill="#000000" fill-rule="nonzero" fill-opacity="1" /><path clip-path="url(#clip670)" d="M1168.83 2338.99 L1176.47 2338.99 L1176.47 2312.63 L1168.16 2314.29 L1168.16 2310.03 L1176.42 2308.37 L1181.1 2308.37 L1181.1 2338.99 L1188.74 2338.99 L1188.74 2342.93 L1168.83 2342.93 L1168.83 2338.99 Z" fill="#000000" fill-rule="nonzero" fill-opacity="1" /><path clip-path="url(#clip670)" d="M1650.94 2338.99 L1667.25 2338.99 L1667.25 2342.93 L1645.31 2342.93 L1645.31 2338.99 Q1647.97 2336.24 1652.56 2331.61 Q1657.16 2326.96 1658.34 2325.61 Q1660.59 2323.09 1661.47 2321.35 Q1662.37 2319.59 1662.37 2317.9 Q1662.37 2315.15 1660.43 2313.41 Q1658.5 2311.68 1655.4 2311.68 Q1653.2 2311.68 1650.75 2312.44 Q1648.32 2313.21 1645.54 2314.76 L1645.54 2310.03 Q1648.37 2308.9 1650.82 2308.32 Q1653.27 2307.74 1655.31 2307.74 Q1660.68 2307.74 1663.87 2310.43 Q1667.07 2313.11 1667.07 2317.6 Q1667.07 2319.73 1666.26 2321.65 Q1665.47 2323.55 1663.37 2326.15 Q1662.79 2326.82 1659.69 2330.03 Q1656.58 2333.23 1650.94 2338.99 Z" fill="#000000" fill-rule="nonzero" fill-opacity="1" /><path clip-path="url(#clip670)" d="M1687.07 2311.45 Q1683.46 2311.45 1681.63 2315.01 Q1679.82 2318.55 1679.82 2325.68 Q1679.82 2332.79 1681.63 2336.35 Q1683.46 2339.9 1687.07 2339.9 Q1690.7 2339.9 1692.51 2336.35 Q1694.34 2332.79 1694.34 2325.68 Q1694.34 2318.55 1692.51 2315.01 Q1690.7 2311.45 1687.07 2311.45 M1687.07 2307.74 Q1692.88 2307.74 1695.93 2312.35 Q1699.01 2316.93 1699.01 2325.68 Q1699.01 2334.41 1695.93 2339.02 Q1692.88 2343.6 1687.07 2343.6 Q1681.26 2343.6 1678.18 2339.02 Q1675.12 2334.41 1675.12 2325.68 Q1675.12 2316.93 1678.18 2312.35 Q1681.26 2307.74 1687.07 2307.74 Z" fill="#000000" fill-rule="nonzero" fill-opacity="1" /><path clip-path="url(#clip670)" d="M1708.04 2338.99 L1715.68 2338.99 L1715.68 2312.63 L1707.37 2314.29 L1707.37 2310.03 L1715.63 2308.37 L1720.31 2308.37 L1720.31 2338.99 L1727.95 2338.99 L1727.95 2342.93 L1708.04 2342.93 L1708.04 2338.99 Z" fill="#000000" fill-rule="nonzero" fill-opacity="1" /><path clip-path="url(#clip670)" d="M1750.24 2312.44 L1738.43 2330.89 L1750.24 2330.89 L1750.24 2312.44 M1749.01 2308.37 L1754.89 2308.37 L1754.89 2330.89 L1759.82 2330.89 L1759.82 2334.78 L1754.89 2334.78 L1754.89 2342.93 L1750.24 2342.93 L1750.24 2334.78 L1734.64 2334.78 L1734.64 2330.27 L1749.01 2308.37 Z" fill="#000000" fill-rule="nonzero" fill-opacity="1" /><path clip-path="url(#clip670)" d="M1764.8 2328.04 L1777.28 2328.04 L1777.28 2331.84 L1764.8 2331.84 L1764.8 2328.04 Z" fill="#000000" fill-rule="nonzero" fill-opacity="1" /><path clip-path="url(#clip670)" d="M1794.66 2311.45 Q1791.05 2311.45 1789.22 2315.01 Q1787.42 2318.55 1787.42 2325.68 Q1787.42 2332.79 1789.22 2336.35 Q1791.05 2339.9 1794.66 2339.9 Q1798.3 2339.9 1800.1 2336.35 Q1801.93 2332.79 1801.93 2325.68 Q1801.93 2318.55 1800.1 2315.01 Q1798.3 2311.45 1794.66 2311.45 M1794.66 2307.74 Q1800.47 2307.74 1803.53 2312.35 Q1806.61 2316.93 1806.61 2325.68 Q1806.61 2334.41 1803.53 2339.02 Q1800.47 2343.6 1794.66 2343.6 Q1788.85 2343.6 1785.77 2339.02 Q1782.72 2334.41 1782.72 2325.68 Q1782.72 2316.93 1785.77 2312.35 Q1788.85 2307.74 1794.66 2307.74 Z" fill="#000000" fill-rule="nonzero" fill-opacity="1" /><path clip-path="url(#clip670)" d="M1815.63 2338.99 L1823.27 2338.99 L1823.27 2312.63 L1814.96 2314.29 L1814.96 2310.03 L1823.23 2308.37 L1827.9 2308.37 L1827.9 2338.99 L1835.54 2338.99 L1835.54 2342.93 L1815.63 2342.93 L1815.63 2338.99 Z" fill="#000000" fill-rule="nonzero" fill-opacity="1" /><path clip-path="url(#clip670)" d="M1842.23 2328.04 L1854.71 2328.04 L1854.71 2331.84 L1842.23 2331.84 L1842.23 2328.04 Z" fill="#000000" fill-rule="nonzero" fill-opacity="1" /><path clip-path="url(#clip670)" d="M1872.09 2311.45 Q1868.48 2311.45 1866.65 2315.01 Q1864.85 2318.55 1864.85 2325.68 Q1864.85 2332.79 1866.65 2336.35 Q1868.48 2339.9 1872.09 2339.9 Q1875.73 2339.9 1877.53 2336.35 Q1879.36 2332.79 1879.36 2325.68 Q1879.36 2318.55 1877.53 2315.01 Q1875.73 2311.45 1872.09 2311.45 M1872.09 2307.74 Q1877.9 2307.74 1880.96 2312.35 Q1884.04 2316.93 1884.04 2325.68 Q1884.04 2334.41 1880.96 2339.02 Q1877.9 2343.6 1872.09 2343.6 Q1866.28 2343.6 1863.2 2339.02 Q1860.15 2334.41 1860.15 2325.68 Q1860.15 2316.93 1863.2 2312.35 Q1866.28 2307.74 1872.09 2307.74 Z" fill="#000000" fill-rule="nonzero" fill-opacity="1" /><path clip-path="url(#clip670)" d="M1893.06 2338.99 L1900.7 2338.99 L1900.7 2312.63 L1892.39 2314.29 L1892.39 2310.03 L1900.66 2308.37 L1905.33 2308.37 L1905.33 2338.99 L1912.97 2338.99 L1912.97 2342.93 L1893.06 2342.93 L1893.06 2338.99 Z" fill="#000000" fill-rule="nonzero" fill-opacity="1" /><path clip-path="url(#clip670)" d="M2375.17 2338.99 L2391.49 2338.99 L2391.49 2342.93 L2369.55 2342.93 L2369.55 2338.99 Q2372.21 2336.24 2376.79 2331.61 Q2381.4 2326.96 2382.58 2325.61 Q2384.82 2323.09 2385.7 2321.35 Q2386.61 2319.59 2386.61 2317.9 Q2386.61 2315.15 2384.66 2313.41 Q2382.74 2311.68 2379.64 2311.68 Q2377.44 2311.68 2374.99 2312.44 Q2372.55 2313.21 2369.78 2314.76 L2369.78 2310.03 Q2372.6 2308.9 2375.05 2308.32 Q2377.51 2307.74 2379.55 2307.74 Q2384.92 2307.74 2388.11 2310.43 Q2391.3 2313.11 2391.3 2317.6 Q2391.3 2319.73 2390.49 2321.65 Q2389.71 2323.55 2387.6 2326.15 Q2387.02 2326.82 2383.92 2330.03 Q2380.82 2333.23 2375.17 2338.99 Z" fill="#000000" fill-rule="nonzero" fill-opacity="1" /><path clip-path="url(#clip670)" d="M2411.3 2311.45 Q2407.69 2311.45 2405.86 2315.01 Q2404.06 2318.55 2404.06 2325.68 Q2404.06 2332.79 2405.86 2336.35 Q2407.69 2339.9 2411.3 2339.9 Q2414.94 2339.9 2416.74 2336.35 Q2418.57 2332.79 2418.57 2325.68 Q2418.57 2318.55 2416.74 2315.01 Q2414.94 2311.45 2411.3 2311.45 M2411.3 2307.74 Q2417.11 2307.74 2420.17 2312.35 Q2423.25 2316.93 2423.25 2325.68 Q2423.25 2334.41 2420.17 2339.02 Q2417.11 2343.6 2411.3 2343.6 Q2405.49 2343.6 2402.42 2339.02 Q2399.36 2334.41 2399.36 2325.68 Q2399.36 2316.93 2402.42 2312.35 Q2405.49 2307.74 2411.3 2307.74 Z" fill="#000000" fill-rule="nonzero" fill-opacity="1" /><path clip-path="url(#clip670)" d="M2432.28 2338.99 L2439.92 2338.99 L2439.92 2312.63 L2431.61 2314.29 L2431.61 2310.03 L2439.87 2308.37 L2444.54 2308.37 L2444.54 2338.99 L2452.18 2338.99 L2452.18 2342.93 L2432.28 2342.93 L2432.28 2338.99 Z" fill="#000000" fill-rule="nonzero" fill-opacity="1" /><path clip-path="url(#clip670)" d="M2461.77 2342.21 L2461.77 2337.95 Q2463.53 2338.78 2465.33 2339.22 Q2467.14 2339.66 2468.87 2339.66 Q2473.5 2339.66 2475.93 2336.56 Q2478.39 2333.44 2478.73 2327.09 Q2477.39 2329.09 2475.33 2330.15 Q2473.27 2331.21 2470.77 2331.21 Q2465.59 2331.21 2462.55 2328.09 Q2459.54 2324.94 2459.54 2319.5 Q2459.54 2314.18 2462.69 2310.96 Q2465.84 2307.74 2471.07 2307.74 Q2477.07 2307.74 2480.22 2312.35 Q2483.39 2316.93 2483.39 2325.68 Q2483.39 2333.85 2479.5 2338.74 Q2475.63 2343.6 2469.08 2343.6 Q2467.32 2343.6 2465.52 2343.25 Q2463.71 2342.9 2461.77 2342.21 M2471.07 2327.56 Q2474.22 2327.56 2476.05 2325.4 Q2477.9 2323.25 2477.9 2319.5 Q2477.9 2315.78 2476.05 2313.62 Q2474.22 2311.45 2471.07 2311.45 Q2467.92 2311.45 2466.07 2313.62 Q2464.24 2315.78 2464.24 2319.5 Q2464.24 2323.25 2466.07 2325.4 Q2467.92 2327.56 2471.07 2327.56 Z" fill="#000000" fill-rule="nonzero" fill-opacity="1" /><path clip-path="url(#clip670)" d="M2489.04 2328.04 L2501.51 2328.04 L2501.51 2331.84 L2489.04 2331.84 L2489.04 2328.04 Z" fill="#000000" fill-rule="nonzero" fill-opacity="1" /><path clip-path="url(#clip670)" d="M2518.9 2311.45 Q2515.29 2311.45 2513.46 2315.01 Q2511.65 2318.55 2511.65 2325.68 Q2511.65 2332.79 2513.46 2336.35 Q2515.29 2339.9 2518.9 2339.9 Q2522.53 2339.9 2524.34 2336.35 Q2526.16 2332.79 2526.16 2325.68 Q2526.16 2318.55 2524.34 2315.01 Q2522.53 2311.45 2518.9 2311.45 M2518.9 2307.74 Q2524.71 2307.74 2527.76 2312.35 Q2530.84 2316.93 2530.84 2325.68 Q2530.84 2334.41 2527.76 2339.02 Q2524.71 2343.6 2518.9 2343.6 Q2513.09 2343.6 2510.01 2339.02 Q2506.95 2334.41 2506.95 2325.68 Q2506.95 2316.93 2510.01 2312.35 Q2513.09 2307.74 2518.9 2307.74 Z" fill="#000000" fill-rule="nonzero" fill-opacity="1" /><path clip-path="url(#clip670)" d="M2539.87 2338.99 L2547.51 2338.99 L2547.51 2312.63 L2539.2 2314.29 L2539.2 2310.03 L2547.46 2308.37 L2552.14 2308.37 L2552.14 2338.99 L2559.78 2338.99 L2559.78 2342.93 L2539.87 2342.93 L2539.87 2338.99 Z" fill="#000000" fill-rule="nonzero" fill-opacity="1" /><path clip-path="url(#clip670)" d="M2566.47 2328.04 L2578.94 2328.04 L2578.94 2331.84 L2566.47 2331.84 L2566.47 2328.04 Z" fill="#000000" fill-rule="nonzero" fill-opacity="1" /><path clip-path="url(#clip670)" d="M2596.33 2311.45 Q2592.72 2311.45 2590.89 2315.01 Q2589.08 2318.55 2589.08 2325.68 Q2589.08 2332.79 2590.89 2336.35 Q2592.72 2339.9 2596.33 2339.9 Q2599.96 2339.9 2601.77 2336.35 Q2603.59 2332.79 2603.59 2325.68 Q2603.59 2318.55 2601.77 2315.01 Q2599.96 2311.45 2596.33 2311.45 M2596.33 2307.74 Q2602.14 2307.74 2605.19 2312.35 Q2608.27 2316.93 2608.27 2325.68 Q2608.27 2334.41 2605.19 2339.02 Q2602.14 2343.6 2596.33 2343.6 Q2590.52 2343.6 2587.44 2339.02 Q2584.38 2334.41 2584.38 2325.68 Q2584.38 2316.93 2587.44 2312.35 Q2590.52 2307.74 2596.33 2307.74 Z" fill="#000000" fill-rule="nonzero" fill-opacity="1" /><path clip-path="url(#clip670)" d="M2617.3 2338.99 L2624.94 2338.99 L2624.94 2312.63 L2616.63 2314.29 L2616.63 2310.03 L2624.89 2308.37 L2629.57 2308.37 L2629.57 2338.99 L2637.21 2338.99 L2637.21 2342.93 L2617.3 2342.93 L2617.3 2338.99 Z" fill="#000000" fill-rule="nonzero" fill-opacity="1" /><polyline clip-path="url(#clip672)" style="stroke:#000000; stroke-linecap:round; stroke-linejoin:round; stroke-width:2; stroke-opacity:0.1; fill:none" points="248.065,2213.47 3152.76,2213.47 "/>
<polyline clip-path="url(#clip672)" style="stroke:#000000; stroke-linecap:round; stroke-linejoin:round; stroke-width:2; stroke-opacity:0.1; fill:none" points="248.065,1758.12 3152.76,1758.12 "/>
<polyline clip-path="url(#clip672)" style="stroke:#000000; stroke-linecap:round; stroke-linejoin:round; stroke-width:2; stroke-opacity:0.1; fill:none" points="248.065,1302.76 3152.76,1302.76 "/>
<polyline clip-path="url(#clip672)" style="stroke:#000000; stroke-linecap:round; stroke-linejoin:round; stroke-width:2; stroke-opacity:0.1; fill:none" points="248.065,847.401 3152.76,847.401 "/>
<polyline clip-path="url(#clip672)" style="stroke:#000000; stroke-linecap:round; stroke-linejoin:round; stroke-width:2; stroke-opacity:0.1; fill:none" points="248.065,392.043 3152.76,392.043 "/>
<polyline clip-path="url(#clip670)" style="stroke:#000000; stroke-linecap:round; stroke-linejoin:round; stroke-width:4; stroke-opacity:1; fill:none" points="248.065,2274.13 248.065,131.032 "/>
<polyline clip-path="url(#clip670)" style="stroke:#000000; stroke-linecap:round; stroke-linejoin:round; stroke-width:4; stroke-opacity:1; fill:none" points="248.065,2213.47 266.963,2213.47 "/>
<polyline clip-path="url(#clip670)" style="stroke:#000000; stroke-linecap:round; stroke-linejoin:round; stroke-width:4; stroke-opacity:1; fill:none" points="248.065,1758.12 266.963,1758.12 "/>
<polyline clip-path="url(#clip670)" style="stroke:#000000; stroke-linecap:round; stroke-linejoin:round; stroke-width:4; stroke-opacity:1; fill:none" points="248.065,1302.76 266.963,1302.76 "/>
<polyline clip-path="url(#clip670)" style="stroke:#000000; stroke-linecap:round; stroke-linejoin:round; stroke-width:4; stroke-opacity:1; fill:none" points="248.065,847.401 266.963,847.401 "/>
<polyline clip-path="url(#clip670)" style="stroke:#000000; stroke-linecap:round; stroke-linejoin:round; stroke-width:4; stroke-opacity:1; fill:none" points="248.065,392.043 266.963,392.043 "/>
<path clip-path="url(#clip670)" d="M188.121 2199.27 Q184.51 2199.27 182.681 2202.84 Q180.876 2206.38 180.876 2213.51 Q180.876 2220.62 182.681 2224.18 Q184.51 2227.72 188.121 2227.72 Q191.755 2227.72 193.561 2224.18 Q195.39 2220.62 195.39 2213.51 Q195.39 2206.38 193.561 2202.84 Q191.755 2199.27 188.121 2199.27 M188.121 2195.57 Q193.931 2195.57 196.987 2200.18 Q200.065 2204.76 200.065 2213.51 Q200.065 2222.24 196.987 2226.84 Q193.931 2231.43 188.121 2231.43 Q182.311 2231.43 179.232 2226.84 Q176.177 2222.24 176.177 2213.51 Q176.177 2204.76 179.232 2200.18 Q182.311 2195.57 188.121 2195.57 Z" fill="#000000" fill-rule="nonzero" fill-opacity="1" /><path clip-path="url(#clip670)" d="M148.006 1740.84 L166.362 1740.84 L166.362 1744.77 L152.288 1744.77 L152.288 1753.24 Q153.306 1752.9 154.325 1752.73 Q155.343 1752.55 156.362 1752.55 Q162.149 1752.55 165.529 1755.72 Q168.908 1758.89 168.908 1764.31 Q168.908 1769.89 165.436 1772.99 Q161.964 1776.07 155.644 1776.07 Q153.468 1776.07 151.2 1775.7 Q148.955 1775.33 146.547 1774.59 L146.547 1769.89 Q148.631 1771.02 150.853 1771.58 Q153.075 1772.13 155.552 1772.13 Q159.556 1772.13 161.894 1770.03 Q164.232 1767.92 164.232 1764.31 Q164.232 1760.7 161.894 1758.59 Q159.556 1756.48 155.552 1756.48 Q153.677 1756.48 151.802 1756.9 Q149.95 1757.32 148.006 1758.2 L148.006 1740.84 Z" fill="#000000" fill-rule="nonzero" fill-opacity="1" /><path clip-path="url(#clip670)" d="M188.121 1743.92 Q184.51 1743.92 182.681 1747.48 Q180.876 1751.02 180.876 1758.15 Q180.876 1765.26 182.681 1768.82 Q184.51 1772.36 188.121 1772.36 Q191.755 1772.36 193.561 1768.82 Q195.39 1765.26 195.39 1758.15 Q195.39 1751.02 193.561 1747.48 Q191.755 1743.92 188.121 1743.92 M188.121 1740.21 Q193.931 1740.21 196.987 1744.82 Q200.065 1749.4 200.065 1758.15 Q200.065 1766.88 196.987 1771.48 Q193.931 1776.07 188.121 1776.07 Q182.311 1776.07 179.232 1771.48 Q176.177 1766.88 176.177 1758.15 Q176.177 1749.4 179.232 1744.82 Q182.311 1740.21 188.121 1740.21 Z" fill="#000000" fill-rule="nonzero" fill-opacity="1" /><path clip-path="url(#clip670)" d="M118.608 1316.1 L126.246 1316.1 L126.246 1289.74 L117.936 1291.4 L117.936 1287.15 L126.2 1285.48 L130.876 1285.48 L130.876 1316.1 L138.515 1316.1 L138.515 1320.04 L118.608 1320.04 L118.608 1316.1 Z" fill="#000000" fill-rule="nonzero" fill-opacity="1" /><path clip-path="url(#clip670)" d="M157.959 1288.56 Q154.348 1288.56 152.519 1292.12 Q150.714 1295.66 150.714 1302.79 Q150.714 1309.9 152.519 1313.46 Q154.348 1317.01 157.959 1317.01 Q161.593 1317.01 163.399 1313.46 Q165.228 1309.9 165.228 1302.79 Q165.228 1295.66 163.399 1292.12 Q161.593 1288.56 157.959 1288.56 M157.959 1284.85 Q163.769 1284.85 166.825 1289.46 Q169.904 1294.04 169.904 1302.79 Q169.904 1311.52 166.825 1316.13 Q163.769 1320.71 157.959 1320.71 Q152.149 1320.71 149.07 1316.13 Q146.015 1311.52 146.015 1302.79 Q146.015 1294.04 149.07 1289.46 Q152.149 1284.85 157.959 1284.85 Z" fill="#000000" fill-rule="nonzero" fill-opacity="1" /><path clip-path="url(#clip670)" d="M188.121 1288.56 Q184.51 1288.56 182.681 1292.12 Q180.876 1295.66 180.876 1302.79 Q180.876 1309.9 182.681 1313.46 Q184.51 1317.01 188.121 1317.01 Q191.755 1317.01 193.561 1313.46 Q195.39 1309.9 195.39 1302.79 Q195.39 1295.66 193.561 1292.12 Q191.755 1288.56 188.121 1288.56 M188.121 1284.85 Q193.931 1284.85 196.987 1289.46 Q200.065 1294.04 200.065 1302.79 Q200.065 1311.52 196.987 1316.13 Q193.931 1320.71 188.121 1320.71 Q182.311 1320.71 179.232 1316.13 Q176.177 1311.52 176.177 1302.79 Q176.177 1294.04 179.232 1289.46 Q182.311 1284.85 188.121 1284.85 Z" fill="#000000" fill-rule="nonzero" fill-opacity="1" /><path clip-path="url(#clip670)" d="M118.608 860.746 L126.246 860.746 L126.246 834.38 L117.936 836.047 L117.936 831.788 L126.2 830.121 L130.876 830.121 L130.876 860.746 L138.515 860.746 L138.515 864.681 L118.608 864.681 L118.608 860.746 Z" fill="#000000" fill-rule="nonzero" fill-opacity="1" /><path clip-path="url(#clip670)" d="M148.006 830.121 L166.362 830.121 L166.362 834.056 L152.288 834.056 L152.288 842.528 Q153.306 842.181 154.325 842.019 Q155.343 841.834 156.362 841.834 Q162.149 841.834 165.529 845.005 Q168.908 848.176 168.908 853.593 Q168.908 859.172 165.436 862.274 Q161.964 865.352 155.644 865.352 Q153.468 865.352 151.2 864.982 Q148.955 864.612 146.547 863.871 L146.547 859.172 Q148.631 860.306 150.853 860.862 Q153.075 861.417 155.552 861.417 Q159.556 861.417 161.894 859.311 Q164.232 857.204 164.232 853.593 Q164.232 849.982 161.894 847.875 Q159.556 845.769 155.552 845.769 Q153.677 845.769 151.802 846.186 Q149.95 846.602 148.006 847.482 L148.006 830.121 Z" fill="#000000" fill-rule="nonzero" fill-opacity="1" /><path clip-path="url(#clip670)" d="M188.121 833.2 Q184.51 833.2 182.681 836.764 Q180.876 840.306 180.876 847.436 Q180.876 854.542 182.681 858.107 Q184.51 861.649 188.121 861.649 Q191.755 861.649 193.561 858.107 Q195.39 854.542 195.39 847.436 Q195.39 840.306 193.561 836.764 Q191.755 833.2 188.121 833.2 M188.121 829.496 Q193.931 829.496 196.987 834.102 Q200.065 838.686 200.065 847.436 Q200.065 856.162 196.987 860.769 Q193.931 865.352 188.121 865.352 Q182.311 865.352 179.232 860.769 Q176.177 856.162 176.177 847.436 Q176.177 838.686 179.232 834.102 Q182.311 829.496 188.121 829.496 Z" fill="#000000" fill-rule="nonzero" fill-opacity="1" /><path clip-path="url(#clip670)" d="M121.825 405.388 L138.144 405.388 L138.144 409.323 L116.2 409.323 L116.2 405.388 Q118.862 402.633 123.445 398.004 Q128.052 393.351 129.232 392.008 Q131.478 389.485 132.357 387.749 Q133.26 385.99 133.26 384.3 Q133.26 381.546 131.316 379.809 Q129.395 378.073 126.293 378.073 Q124.094 378.073 121.64 378.837 Q119.209 379.601 116.432 381.152 L116.432 376.43 Q119.256 375.296 121.709 374.717 Q124.163 374.138 126.2 374.138 Q131.57 374.138 134.765 376.823 Q137.959 379.509 137.959 383.999 Q137.959 386.129 137.149 388.05 Q136.362 389.948 134.256 392.541 Q133.677 393.212 130.575 396.43 Q127.473 399.624 121.825 405.388 Z" fill="#000000" fill-rule="nonzero" fill-opacity="1" /><path clip-path="url(#clip670)" d="M157.959 377.842 Q154.348 377.842 152.519 381.407 Q150.714 384.948 150.714 392.078 Q150.714 399.184 152.519 402.749 Q154.348 406.291 157.959 406.291 Q161.593 406.291 163.399 402.749 Q165.228 399.184 165.228 392.078 Q165.228 384.948 163.399 381.407 Q161.593 377.842 157.959 377.842 M157.959 374.138 Q163.769 374.138 166.825 378.745 Q169.904 383.328 169.904 392.078 Q169.904 400.805 166.825 405.411 Q163.769 409.994 157.959 409.994 Q152.149 409.994 149.07 405.411 Q146.015 400.805 146.015 392.078 Q146.015 383.328 149.07 378.745 Q152.149 374.138 157.959 374.138 Z" fill="#000000" fill-rule="nonzero" fill-opacity="1" /><path clip-path="url(#clip670)" d="M188.121 377.842 Q184.51 377.842 182.681 381.407 Q180.876 384.948 180.876 392.078 Q180.876 399.184 182.681 402.749 Q184.51 406.291 188.121 406.291 Q191.755 406.291 193.561 402.749 Q195.39 399.184 195.39 392.078 Q195.39 384.948 193.561 381.407 Q191.755 377.842 188.121 377.842 M188.121 374.138 Q193.931 374.138 196.987 378.745 Q200.065 383.328 200.065 392.078 Q200.065 400.805 196.987 405.411 Q193.931 409.994 188.121 409.994 Q182.311 409.994 179.232 405.411 Q176.177 400.805 176.177 392.078 Q176.177 383.328 179.232 378.745 Q182.311 374.138 188.121 374.138 Z" fill="#000000" fill-rule="nonzero" fill-opacity="1" /><path clip-path="url(#clip670)" d="M48.597 1302.47 L67.5031 1302.47 L67.5031 1308.36 L18.2962 1308.36 L18.2962 1302.47 L23.7071 1302.47 Q20.5242 1300.63 18.9964 1297.83 Q17.4368 1294.99 17.4368 1291.08 Q17.4368 1284.59 22.5931 1280.54 Q27.7493 1276.47 36.152 1276.47 Q44.5547 1276.47 49.711 1280.54 Q54.8672 1284.59 54.8672 1291.08 Q54.8672 1294.99 53.3394 1297.83 Q51.7798 1300.63 48.597 1302.47 M36.152 1282.55 Q29.6908 1282.55 26.0305 1285.22 Q22.3384 1287.86 22.3384 1292.51 Q22.3384 1297.16 26.0305 1299.83 Q29.6908 1302.47 36.152 1302.47 Q42.6132 1302.47 46.3053 1299.83 Q49.9656 1297.16 49.9656 1292.51 Q49.9656 1287.86 46.3053 1285.22 Q42.6132 1282.55 36.152 1282.55 Z" fill="#000000" fill-rule="nonzero" fill-opacity="1" /><path clip-path="url(#clip670)" d="M34.6561 1236.27 L37.5206 1236.27 L37.5206 1263.2 Q43.5681 1262.82 46.7509 1259.57 Q49.9019 1256.29 49.9019 1250.47 Q49.9019 1247.09 49.0744 1243.94 Q48.2469 1240.76 46.5918 1237.64 L52.1299 1237.64 Q53.4667 1240.79 54.167 1244.1 Q54.8672 1247.41 54.8672 1250.82 Q54.8672 1259.35 49.9019 1264.34 Q44.9367 1269.31 36.4703 1269.31 Q27.7174 1269.31 22.5931 1264.6 Q17.4368 1259.86 17.4368 1251.83 Q17.4368 1244.64 22.0838 1240.47 Q26.6989 1236.27 34.6561 1236.27 M32.9373 1242.13 Q28.1312 1242.19 25.2666 1244.83 Q22.4021 1247.44 22.4021 1251.77 Q22.4021 1256.67 25.1712 1259.63 Q27.9402 1262.56 32.9692 1263.01 L32.9373 1242.13 Z" fill="#000000" fill-rule="nonzero" fill-opacity="1" /><path clip-path="url(#clip670)" d="M22.4021 1212.84 Q22.4021 1217.56 26.0942 1220.29 Q29.7545 1223.03 36.152 1223.03 Q42.5495 1223.03 46.2417 1220.32 Q49.9019 1217.59 49.9019 1212.84 Q49.9019 1208.17 46.2098 1205.43 Q42.5177 1202.69 36.152 1202.69 Q29.8181 1202.69 26.126 1205.43 Q22.4021 1208.17 22.4021 1212.84 M17.4368 1212.84 Q17.4368 1205.21 22.4021 1200.85 Q27.3673 1196.48 36.152 1196.48 Q44.9049 1196.48 49.9019 1200.85 Q54.8672 1205.21 54.8672 1212.84 Q54.8672 1220.52 49.9019 1224.88 Q44.9049 1229.2 36.152 1229.2 Q27.3673 1229.2 22.4021 1224.88 Q17.4368 1220.52 17.4368 1212.84 Z" fill="#000000" fill-rule="nonzero" fill-opacity="1" /><path clip-path="url(#clip670)" d="M48.597 1181.11 L67.5031 1181.11 L67.5031 1187 L18.2962 1187 L18.2962 1181.11 L23.7071 1181.11 Q20.5242 1179.27 18.9964 1176.46 Q17.4368 1173.63 17.4368 1169.72 Q17.4368 1163.22 22.5931 1159.18 Q27.7493 1155.11 36.152 1155.11 Q44.5547 1155.11 49.711 1159.18 Q54.8672 1163.22 54.8672 1169.72 Q54.8672 1173.63 53.3394 1176.46 Q51.7798 1179.27 48.597 1181.11 M36.152 1161.19 Q29.6908 1161.19 26.0305 1163.86 Q22.3384 1166.5 22.3384 1171.15 Q22.3384 1175.8 26.0305 1178.47 Q29.6908 1181.11 36.152 1181.11 Q42.6132 1181.11 46.3053 1178.47 Q49.9656 1175.8 49.9656 1171.15 Q49.9656 1166.5 46.3053 1163.86 Q42.6132 1161.19 36.152 1161.19 Z" fill="#000000" fill-rule="nonzero" fill-opacity="1" /><path clip-path="url(#clip670)" d="M4.41896 1145.4 L4.41896 1139.54 L53.9442 1139.54 L53.9442 1145.4 L4.41896 1145.4 Z" fill="#000000" fill-rule="nonzero" fill-opacity="1" /><path clip-path="url(#clip670)" d="M34.6561 1096.8 L37.5206 1096.8 L37.5206 1123.72 Q43.5681 1123.34 46.7509 1120.1 Q49.9019 1116.82 49.9019 1110.99 Q49.9019 1107.62 49.0744 1104.47 Q48.2469 1101.29 46.5918 1098.17 L52.1299 1098.17 Q53.4667 1101.32 54.167 1104.63 Q54.8672 1107.94 54.8672 1111.34 Q54.8672 1119.87 49.9019 1124.87 Q44.9367 1129.84 36.4703 1129.84 Q27.7174 1129.84 22.5931 1125.13 Q17.4368 1120.38 17.4368 1112.36 Q17.4368 1105.17 22.0838 1101 Q26.6989 1096.8 34.6561 1096.8 M32.9373 1102.65 Q28.1312 1102.72 25.2666 1105.36 Q22.4021 1107.97 22.4021 1112.3 Q22.4021 1117.2 25.1712 1120.16 Q27.9402 1123.09 32.9692 1123.53 L32.9373 1102.65 Z" fill="#000000" fill-rule="nonzero" fill-opacity="1" /><path clip-path="url(#clip670)" d="M1629.32 16.7545 L1629.32 25.383 Q1625.19 21.5346 1620.49 19.6307 Q1615.83 17.7268 1610.56 17.7268 Q1600.19 17.7268 1594.68 24.0867 Q1589.17 30.4061 1589.17 42.3968 Q1589.17 54.3469 1594.68 60.7069 Q1600.19 67.0263 1610.56 67.0263 Q1615.83 67.0263 1620.49 65.1223 Q1625.19 63.2184 1629.32 59.3701 L1629.32 67.9175 Q1625.02 70.8341 1620.2 72.2924 Q1615.42 73.7508 1610.08 73.7508 Q1596.34 73.7508 1588.44 65.3654 Q1580.54 56.9395 1580.54 42.3968 Q1580.54 27.8135 1588.44 19.4281 Q1596.34 11.0023 1610.08 11.0023 Q1615.5 11.0023 1620.28 12.4606 Q1625.1 13.8784 1629.32 16.7545 Z" fill="#000000" fill-rule="nonzero" fill-opacity="1" /><path clip-path="url(#clip670)" d="M1659.21 32.4315 Q1653.22 32.4315 1649.73 37.1306 Q1646.25 41.7891 1646.25 49.9314 Q1646.25 58.0738 1649.69 62.7728 Q1653.18 67.4314 1659.21 67.4314 Q1665.17 67.4314 1668.65 62.7323 Q1672.14 58.0333 1672.14 49.9314 Q1672.14 41.8701 1668.65 37.1711 Q1665.17 32.4315 1659.21 32.4315 M1659.21 26.1121 Q1668.94 26.1121 1674.48 32.4315 Q1680.03 38.7509 1680.03 49.9314 Q1680.03 61.0714 1674.48 67.4314 Q1668.94 73.7508 1659.21 73.7508 Q1649.45 73.7508 1643.9 67.4314 Q1638.39 61.0714 1638.39 49.9314 Q1638.39 38.7509 1643.9 32.4315 Q1649.45 26.1121 1659.21 26.1121 Z" fill="#000000" fill-rule="nonzero" fill-opacity="1" /><path clip-path="url(#clip670)" d="M1691.62 54.671 L1691.62 27.2059 L1699.07 27.2059 L1699.07 54.3874 Q1699.07 60.8284 1701.59 64.0691 Q1704.1 67.2693 1709.12 67.2693 Q1715.16 67.2693 1718.64 63.421 Q1722.16 59.5726 1722.16 52.9291 L1722.16 27.2059 L1729.62 27.2059 L1729.62 72.576 L1722.16 72.576 L1722.16 65.6084 Q1719.45 69.7404 1715.84 71.7658 Q1712.28 73.7508 1707.54 73.7508 Q1699.72 73.7508 1695.67 68.8897 Q1691.62 64.0286 1691.62 54.671 M1710.38 26.1121 L1710.38 26.1121 Z" fill="#000000" fill-rule="nonzero" fill-opacity="1" /><path clip-path="url(#clip670)" d="M1782.68 45.1919 L1782.68 72.576 L1775.23 72.576 L1775.23 45.4349 Q1775.23 38.994 1772.72 35.7938 Q1770.21 32.5936 1765.18 32.5936 Q1759.15 32.5936 1755.67 36.4419 Q1752.18 40.2903 1752.18 46.9338 L1752.18 72.576 L1744.69 72.576 L1744.69 27.2059 L1752.18 27.2059 L1752.18 34.2544 Q1754.85 30.163 1758.46 28.1376 Q1762.11 26.1121 1766.85 26.1121 Q1774.66 26.1121 1778.67 30.9732 Q1782.68 35.7938 1782.68 45.1919 Z" fill="#000000" fill-rule="nonzero" fill-opacity="1" /><path clip-path="url(#clip670)" d="M1804.92 14.324 L1804.92 27.2059 L1820.28 27.2059 L1820.28 32.9987 L1804.92 32.9987 L1804.92 57.6282 Q1804.92 63.1779 1806.42 64.7578 Q1807.96 66.3376 1812.62 66.3376 L1820.28 66.3376 L1820.28 72.576 L1812.62 72.576 Q1803.99 72.576 1800.71 69.3758 Q1797.43 66.1351 1797.43 57.6282 L1797.43 32.9987 L1791.96 32.9987 L1791.96 27.2059 L1797.43 27.2059 L1797.43 14.324 L1804.92 14.324 Z" fill="#000000" fill-rule="nonzero" fill-opacity="1" /><polyline clip-path="url(#clip672)" style="stroke:#009af9; stroke-linecap:round; stroke-linejoin:round; stroke-width:4; stroke-opacity:1; fill:none" points="330.274,2213.47 342.569,2213.47 354.071,2213.47 366.366,2213.47 378.265,2213.47 390.56,2049.55 402.459,1412.04 414.755,993.115 427.05,1830.97 438.949,2131.51 451.244,2213.47 463.143,2213.47 475.438,2213.47 487.733,2213.47 498.839,2213.47 511.134,2213.47 523.033,2213.47 535.328,2167.94 547.227,1521.33 559.522,783.651 571.818,1685.26 583.716,2140.62 596.012,2204.37 607.91,2213.47 620.206,2213.47 632.501,2213.47 643.606,2213.47 655.902,2213.47 667.801,2213.47 680.096,2204.37 691.995,2040.44 704.29,1840.08 716.585,2076.87 728.484,2167.94 740.779,2213.47 752.678,2213.47 764.973,2213.47 777.269,2213.47 788.374,2213.47 800.67,2213.47 812.568,2213.47 824.864,2104.19 836.762,1858.3 849.058,1758.12 861.353,1794.55 873.252,2158.83 885.547,2204.37 897.446,2213.47 909.741,2213.47 922.036,2213.47 933.539,2213.47 945.834,2213.47 957.733,2213.47 970.028,2149.72 981.927,1621.51 994.222,1184.37 1006.52,1448.47 1018.42,2058.65 1030.71,2167.94 1042.61,2204.37 1054.91,2213.47 1067.2,2213.47 1078.31,2213.47 1090.6,2213.47 1102.5,2204.37 1114.8,2186.15 1126.69,2149.72 1138.99,1994.9 1151.28,2004.01 1163.18,2131.51 1175.48,2213.47 1187.38,2213.47 1199.67,2213.47 1211.97,2213.47 1223.07,2213.47 1235.37,2213.47 1247.27,2213.47 1259.56,2195.26 1271.46,2104.19 1283.76,1985.8 1296.05,1994.9 1307.95,2149.72 1320.25,2195.26 1332.15,2213.47 1344.44,2213.47 1356.74,2213.47 1367.84,2213.47 1380.14,2213.47 1392.04,2213.47 1404.33,2204.37 1416.23,2131.51 1428.53,1885.62 1440.82,1758.12 1452.72,2085.97 1465.01,2213.47 1476.91,2213.47 1489.21,2213.47 1501.5,2213.47 1513.01,2213.47 1525.3,2213.47 1537.2,2213.47 1549.5,2186.15 1561.39,2049.55 1573.69,1357.4 1585.98,1084.19 1597.88,1739.9 1610.18,2167.94 1622.08,2204.37 1634.37,2213.47 1646.67,2204.37 1657.77,2213.47 1670.07,2213.47 1681.97,2204.37 1694.26,2195.26 1706.16,1667.04 1718.46,1657.94 1730.75,1366.51 1742.65,2058.65 1754.95,2195.26 1766.85,2213.47 1779.14,2213.47 1791.44,2213.47 1802.54,2204.37 1814.84,2213.47 1826.74,2204.37 1839.03,2113.3 1850.93,1657.94 1863.22,191.686 1875.52,300.972 1887.42,1776.33 1899.71,2149.72 1911.61,2213.47 1923.91,2213.47 1936.2,2213.47 1947.31,2204.37 1959.6,2213.47 1971.5,2204.37 1983.8,2177.05 1995.7,1858.3 2007.99,865.615 2020.29,219.007 2032.19,902.044 2044.48,1967.58 2056.38,2195.26 2068.68,2213.47 2080.97,2213.47 2092.47,2213.47 2104.77,2213.47 2116.67,2213.47 2128.96,2131.51 2140.86,1667.04 2153.16,765.437 2165.45,1530.44 2177.35,2013.12 2189.65,2167.94 2201.54,2167.94 2213.84,2213.47 2226.14,2213.47 2237.24,2204.37 2249.54,2213.47 2261.44,2213.47 2273.73,2167.94 2285.63,1703.47 2297.92,856.508 2310.22,856.508 2322.12,1985.8 2334.41,2095.08 2346.31,2186.15 2358.61,2195.26 2370.9,2204.37 2382.01,2213.47 2394.3,2213.47 2406.2,2195.26 2418.5,2204.37 2430.4,2040.44 2442.69,1521.33 2454.99,1867.4 2466.89,2122.4 2479.18,2186.15 2491.08,2195.26 2503.38,2204.37 2515.67,2204.37 2526.78,2204.37 2539.07,2213.47 2550.97,2195.26 2563.27,2195.26 2575.16,1949.37 2587.46,1758.12 2599.76,1794.55 2611.65,2095.08 2623.95,2195.26 2635.85,2213.47 2648.14,2213.47 2660.44,2213.47 2671.94,2213.47 2684.24,2213.47 2696.13,2204.37 2708.43,2177.05 2720.33,2022.22 2732.62,1676.15 2744.92,1657.94 2756.82,1976.69 2769.11,2167.94 2781.01,2195.26 2793.31,2213.47 2805.6,2213.47 2816.71,2213.47 2829,2213.47 2840.9,2213.47 2853.2,2186.15 2865.1,2040.44 2877.39,1931.15 2889.69,1912.94 2901.59,2131.51 2913.88,2204.37 2925.78,2213.47 2938.08,2213.47 2950.37,2213.47 2961.48,2213.47 2973.77,2213.47 2985.67,2213.47 2997.97,2140.62 3009.86,2004.01 3022.16,1739.9 3034.45,1967.58 3046.35,2049.55 3058.65,2204.37 3070.55,2213.47 "/>
</svg>
